<?xml version='1.0' encoding='utf-8'?>
<svg xmlns="http://www.w3.org/2000/svg" width="1920" height="1080" viewBox="0 0 1920 1080" data-theme="light">
  <style>
        @font-face {
            font-family: 'Inter';
            src: url('assets/fonts/Inter-Regular.ttf') format('truetype');
            font-weight: 400;
            font-style: normal;
            font-display: swap;
        }
        @font-face {
            font-family: 'Inter';
            src: url('assets/fonts/Inter-Bold.ttf') format('truetype');
            font-weight: 600;
            font-style: normal;
            font-display: swap;
        }
        @font-face {
            font-family: 'Inter';
            src: url('assets/fonts/Inter-Bold.ttf') format('truetype');
            font-weight: 800;
            font-style: normal;
            font-display: swap;
        }
        
:root {
    --background: #f8fafc;
    --panel: #ffffff;
    --primary-text: #0f172a;
    --muted-text: #64748b;
    --inverse-text: #ffffff;
    --border: #e2e8f0;
    --shadow-color: #000000;
    --icon-pad-bg: #1e293b;
    --art-glow: #0891b2;
    --art-glow-opacity: 0.10;
    --art-sheen: #ffffff;
    --art-sheen-opacity: 0.34;
    --art-shadow: #0f172a;
    --art-shadow-opacity: 0.14;
    --art-muted-line: #94a3b8;
    --art-panel-tint: #f1f5f9;
    --font-family: 'Inter', 'Segoe UI', 'Kalam', Roboto, Helvetica, Arial, sans-serif;
    --radius-xl: 16px;
    --font-family-headline: 'Inter', 'Segoe UI', 'Kalam', Roboto, Helvetica, Arial, sans-serif;
    --font-family-body: 'Inter', 'Segoe UI', 'Kalam', Roboto, Helvetica, Arial, sans-serif;
    --font-heading: 'Inter', 'Segoe UI', 'Kalam', Roboto, Helvetica, Arial, sans-serif;
    --font-body: 'Inter', 'Segoe UI', 'Kalam', Roboto, Helvetica, Arial, sans-serif;
    --font-size-h1: 56px;
    --font-size-h2: 40px;
    --font-size-h3: 28px;
    --font-size-body: 24px;
    --font-size-caption: 18px;
    --secondary-text: var(--muted-text);
    --panel-border: var(--border);
    --font-weight-normal: 400;
    --font-weight-medium: 500;
    --font-weight-semibold: 600;
    --font-weight-bold: 700;
    --spacing-gutter-pct: 0.07;
    --spacing-top-pct: 0.15;
    --spacing-bottom-pct: 0.07;
    --spacing-title-y-pct: 0.055;
    --accent-1: #d97706;
    --accent-2: #ea580c;
    --accent-3: #dc2626;
    --accent-4: #65a30d;
    --accent-5: #16a34a;
    --accent-6: #92400e;
}
:root[data-theme="dark"] {
    --background: #0f172a;
    --panel: #1e293b;
    --primary-text: #f1f5f9;
    --muted-text: #94a3b8;
    --inverse-text: #0f172a;
    --border: #334155;
    --shadow-color: #000000;
    --icon-pad-bg: #1e293b;
    --art-glow: #7dd3fc;
    --art-glow-opacity: 0.18;
    --art-sheen: #ffffff;
    --art-sheen-opacity: 0.18;
    --art-shadow: #000000;
    --art-shadow-opacity: 0.28;
    --art-muted-line: #64748b;
    --art-panel-tint: #1e293b;
    --accent-1: #fbbf24;
    --accent-2: #fb923c;
    --accent-3: #f87171;
    --accent-4: #a3e635;
    --accent-5: #4ade80;
    --accent-6: #d4a574;
}
:root[data-theme="light"] {
    --background: #f8fafc;
    --panel: #ffffff;
    --primary-text: #0f172a;
    --muted-text: #64748b;
    --inverse-text: #ffffff;
    --border: #e2e8f0;
    --shadow-color: #000000;
    --icon-pad-bg: #1e293b;
    --art-glow: #0891b2;
    --art-glow-opacity: 0.10;
    --art-sheen: #ffffff;
    --art-sheen-opacity: 0.34;
    --art-shadow: #0f172a;
    --art-shadow-opacity: 0.14;
    --art-muted-line: #94a3b8;
    --art-panel-tint: #f1f5f9;
    --accent-1: #d97706;
    --accent-2: #ea580c;
    --accent-3: #dc2626;
    --accent-4: #65a30d;
    --accent-5: #16a34a;
    --accent-6: #92400e;
}</style>
  <rect x="0" y="0" width="1.92E+3" height="1.08E+3" fill="#252a34" stroke="none" id="programmatic_background"/>
  <line id="HEADER_DECOR" x1="960.0" x2="1080.0" y1="135.0" y2="135.0" stroke="var(--accent-1)" stroke-width="6" stroke-linecap="round"/>
  <defs>
    <pattern id="svg50ce8959-napkin-hatch" patternUnits="userSpaceOnUse" width="12" height="12">
      <path d="M -3 12 L 12 -3 M 0 15 L 15 0" fill="none" stroke="var(--primary-text)" stroke-width="1" stroke-opacity="0.05"/>
    </pattern>
    <filter id="svg50ce8959-shadow" x="-30%" y="-30%" width="160%" height="160%">
      <feDropShadow dx="0" dy="2" stdDeviation="3" flood-color="#000000" flood-opacity="0.08"/>
      <feDropShadow dx="0" dy="6" stdDeviation="10" flood-color="#000000" flood-opacity="0.12"/>
    </filter>
    <radialGradient id="svg50ce8959-universal-edge-vignette" cx="50%" cy="50%" r="72%">
      <stop offset="0%" stop-color="var(--background)" stop-opacity="0"/>
      <stop offset="72%" stop-color="var(--background)" stop-opacity="0.12"/>
      <stop offset="100%" stop-color="var(--primary-text)" stop-opacity="0.08"/>
    </radialGradient>
    <linearGradient id="svg50ce8959-universal-surface-sheen" x1="0%" y1="0%" x2="100%" y2="100%">
      <stop offset="0%" stop-color="var(--art-sheen)" stop-opacity="var(--art-sheen-opacity)"/>
      <stop offset="46%" stop-color="var(--art-sheen)" stop-opacity="0.035"/>
      <stop offset="100%" stop-color="var(--art-panel-tint)" stop-opacity="0.14"/>
    </linearGradient>
    <radialGradient id="svg50ce8959-universal-icon-aura" cx="50%" cy="42%" r="64%">
      <stop offset="0%" stop-color="var(--art-glow)" stop-opacity="var(--art-glow-opacity)"/>
      <stop offset="100%" stop-color="var(--background)" stop-opacity="0"/>
    </radialGradient>
    <linearGradient id="svg50ce8959-fact-card-sheen" x1="0%" y1="0%" x2="100%" y2="100%">
      <stop offset="0%" stop-color="var(--inverse-text)" stop-opacity="0.18"/>
      <stop offset="54%" stop-color="var(--inverse-text)" stop-opacity="0.04"/>
      <stop offset="100%" stop-color="var(--background)" stop-opacity="0.14"/>
    </linearGradient>
    <radialGradient id="svg50ce8959-fact-icon-glow" cx="50%" cy="42%" r="62%">
      <stop offset="0%" stop-color="var(--inverse-text)" stop-opacity="0.22"/>
      <stop offset="100%" stop-color="var(--background)" stop-opacity="0"/>
    </radialGradient>
    <filter id="svg50ce8959-text-glow" x="-20%" y="-20%" width="140%" height="140%">
      <feDropShadow dx="0" dy="0" stdDeviation="2" flood-color="#000000" flood-opacity="0.4"/>
    </filter>
    <marker id="svg50ce8959-arrowhead" markerWidth="10" markerHeight="7" refX="9" refY="3.5" orient="auto" markerUnits="strokeWidth">
      <polygon points="0 0, 10 3.5, 0 7" fill="var(--muted-text)" opacity="0.6"/>
    </marker>
  </defs>
  <rect width="100%" height="100%" fill="var(--background)" id="CANVAS_BG"/>
  <rect width="100%" height="100%" fill="url(#svg50ce8959-napkin-hatch)"/>
  <rect id="UNIVERSAL_EDGE_VIGNETTE" width="100%" height="100%" fill="url(#svg50ce8959-universal-edge-vignette)" opacity="0.62"/>
  <line x1="960" y1="178" x2="960" y2="986" stroke="var(--muted-text)" stroke-width="5" stroke-opacity="0.10" stroke-linecap="round"/>
  <path d="M 360 178 C 620 152 1300 152 1560 178" fill="none" stroke="var(--primary-text)" stroke-width="2" stroke-opacity="0.12" stroke-linecap="round"/>
  <text id="TITLE" x="960.0" y="59" text-anchor="middle" font-weight="800" font-size="72" fill="#0f172a" style="font-size: 60px; font-family: Inter, Segoe UI, Kalam, Roboto, Helvetica, Arial, sans-serif; font-weight: 700; letter-spacing:-1.2px;" data-final-font-size="60">
    <tspan x="960.0" dy="68.00px">The 1817 Gloucester Sea Serpent Time line</tspan>
  </text>
  <rect id="TITLE_FRAME" x="134" y="59" width="1652" height="103" fill="none"/>
  <g transform="translate(960.0, 250.0)">
    <rect id="ITEM_1_BG" x="-600" y="-72" width="1200" height="176" rx="24" fill="var(--accent-2)" stroke="var(--accent-1)" filter="url(#svg50ce8959-shadow)" stroke-width="3" fill-opacity="1.0"/>
    <g transform="translate(-480.0, 0.0)">
      <circle r="60" fill="var(--background)" opacity="0.3"/>
      <circle id="ITEM_1_PAD" cx="0" cy="0" r="50" fill="var(--icon-pad-bg)" stroke="var(--primary-text)" opacity="0.9" fill-opacity="0.9" stroke-width="2"/>
      <circle id="ITEM_1_PAD_INNER" cx="0" cy="0" r="39.00" fill="var(--accent-2)" fill-opacity="0.22"/>
      <circle cx="0" cy="0" r="40" fill="none" stroke="var(--accent-1)" stroke-width="3" stroke-dasharray="6 4"/>
      <g id="ITEM_1_ICON" transform="translate(-39, -39)" data-icon-size="78" stroke-dasharray="6 4">
        <g transform="translate(-5.522123893805309,-7.938053097345129) scale(2.7610619469026547)">
          <path d="M20 9L22 6H27V9H30V15L22 16L14 15L15.5646 9.43999C15.6335 9.17999 15.8696 9 16.1353 9H20Z" fill="#CDC4D6"/>
          <path d="M22 16H30V23L17 26L4 23L2.03838 17.2837C1.85708 16.6418 2.34056 16 3.01543 16H22Z" fill="#CDC4D6"/>
          <path d="M24.66 12.99H25.33C25.7 12.99 25.99 12.69 25.99 12.33V11.66C25.99 11.29 25.69 11 25.33 11H24.66C24.29 11 24 11.3 24 11.66V12.33C24 12.7 24.29 12.99 24.66 12.99Z" fill="#26EAFC"/>
          <path d="M4 23L5.801 29.2731C5.9204 29.7013 6.31841 30 6.76617 30H28.995C29.5522 30 30 29.5519 30 29.0043V23H4Z" fill="#CA0B4A"/>
          <path d="M21 11C21.54 11 22 11 22 12C22 12.9821 21.5563 12.99 21.0289 12.9995L21 13H14.5665L15.1242 11H21Z" fill="#00A6ED"/>
          <path d="M15.3362 21H14.6638C14.3017 21 14 20.6983 14 20.3362V19.6638C14 19.3017 14.2931 19 14.6638 19H15.3362C15.6983 19 16 19.2931 16 19.6638V20.3362C16 20.6983 15.7069 21 15.3362 21Z" fill="#00A6ED"/>
          <path d="M18.6638 21H19.3362C19.7069 21 20 20.6983 20 20.3362V19.6638C20 19.2931 19.6983 19 19.3362 19H18.6638C18.2931 19 18 19.3017 18 19.6638V20.3362C18 20.6983 18.2931 21 18.6638 21Z" fill="#00A6ED"/>
          <path d="M23.3362 21H22.6638C22.2931 21 22 20.6983 22 20.3362V19.6638C22 19.3017 22.2931 19 22.6638 19H23.3362C23.6983 19 24 19.2931 24 19.6638V20.3362C24 20.6983 23.7069 21 23.3362 21Z" fill="#00A6ED"/>
          <path d="M26.6638 21H27.3362C27.7069 21 28 20.6983 28 20.3362V19.6638C28 19.2931 27.6983 19 27.3362 19H26.6638C26.2931 19 26 19.3017 26 19.6638V20.3362C26 20.6983 26.2931 21 26.6638 21Z" fill="#00A6ED"/>
          <path d="M25.33 12.99H24.66C24.29 12.99 24 12.7 24 12.33V11.66C24 11.3 24.29 11 24.66 11H25.33C25.69 11 25.99 11.29 25.99 11.66V12.33C25.99 12.69 25.7 12.99 25.33 12.99Z" fill="#00A6ED"/>
          <path d="M30.01 27.6699C28.26 27.6699 28.26 28.7899 26.5 28.7899C24.75 28.7899 24.75 27.6699 22.99 27.6699C21.24 27.6699 21.24 28.7899 19.49 28.7899C17.74 28.7899 17.74 27.6699 15.99 27.6699C14.24 27.6699 14.24 28.7899 12.49 28.7899C10.74 28.7899 10.74 27.6699 8.99 27.6699C7.24 27.6699 7.24 28.7899 5.5 28.7899C3.75 28.7899 3.75 27.6699 2 27.6699V29.9899H30L30.01 27.6699Z" fill="#00A6ED"/>
          <path d="M26.5962 4C26.8077 4 26.9904 4.18091 26.9904 4.41206H27V6H22L22.6635 4.84422C22.9615 4.3216 23.5096 4 24.0962 4H26.5962Z" fill="#533566"/>
          <path d="M5 16H30V15H5.58C5.26 15 5 15.2626 5 15.5859V16Z" fill="#533566"/>
        </g>
      </g>
    </g>
    <g transform="translate(-330, -36)">
      <text id="ITEM_1_HEAD" text-anchor="start" font-weight="bold" font-size="34" fill="var(--primary-text)" x="0.0" y="-10.0" data-bg-id="ITEM_1_BG" fill-opacity="1.0" style="font-size: 30px; font-family: Inter, Segoe UI, Kalam, Roboto, Helvetica, Arial, sans-serif; font-weight: 700; letter-spacing:-0.4px;" data-final-font-size="30">
        <tspan x="0.0" dy="30.25px">August Sightings</tspan>
      </text>
      <rect id="ITEM_1_HEAD_FRAME" x="0" y="-10" width="846" height="44" fill="none"/>
      <text id="ITEM_1_BODY" text-anchor="start" font-size="24" fill="var(--primary-text)" x="0.0" y="24.0" data-bg-id="ITEM_1_BG" style="font-size: 26px; font-family: Inter, Segoe UI, Kalam, Roboto, Helvetica, Arial, sans-serif; font-weight: 400;" data-final-font-size="26">
        <tspan x="0.0" dy="31.62px">Massive marine creatures appear near Cape Ann coast</tspan>
      </text>
      <rect id="ITEM_1_BODY_FRAME" x="0" y="24" width="846" height="84" fill="none"/>
    </g>
  </g>
  <g transform="translate(960.0, 465.0)">
    <rect id="ITEM_2_BG" x="-600" y="-72" width="1200" height="176" rx="24" fill="var(--accent-3)" stroke="var(--accent-2)" filter="url(#svg50ce8959-shadow)" stroke-width="3" fill-opacity="1.0"/>
    <g transform="translate(-480.0, 0.0)">
      <circle r="60" fill="var(--background)" opacity="0.3"/>
      <circle id="ITEM_2_PAD" cx="0" cy="0" r="50" fill="var(--icon-pad-bg)" stroke="var(--primary-text)" opacity="0.9" fill-opacity="0.9" stroke-width="2"/>
      <circle id="ITEM_2_PAD_INNER" cx="0" cy="0" r="39.00" fill="var(--accent-3)" fill-opacity="0.22"/>
      <circle cx="0" cy="0" r="40" fill="none" stroke="var(--accent-1)" stroke-width="3" stroke-dasharray="6 4"/>
      <g id="ITEM_2_ICON" transform="translate(-39, -39)" data-icon-size="78" stroke-dasharray="6 4">
        <g transform="translate(-3.2500000000000027,-2.6) scale(0.1625)" vector-effect="non-scaling-stroke" fill="#f1f5f9" fill-opacity="1.0" stroke="none">
          <path fill="#f1f5f9" d="m220 16.125l12.688 39.438l-75.75-31.157l22.843 35.5l-62.31-8.062l20.25 18.375C85.836 87.854 40.9 132.144 31.47 182.5c-13.072 69.79 13.156 136.212 83.56 174.344c28.93 15.672 67.963 44.2 69.626 74.625c1.576 28.818-16.452 47.193-38.437 62.25h141.5c10.595-26.14 15.644-50.77 12.81-74.5c-7.014-58.812-61.562-108.4-122.56-133.126c-31.615-12.813-67.4-25.374-59.595-84.125c7.474-56.25 65.42-77.176 104.78-65.126l175.064 174.47l11.217-11.283l.125.158l29.75-27.032l-46.812 6.094l-11.344-11.344l27.188-24.656l-45.938 5.97l-13-12.97l27.75-25.22l-46.906 6.095l.25.313l-13.844-13.813L341 181.562l-41.156 5.313l-32.906-32.813c-9.38-17.193-4.68-25.8 5.468-28.28c3.945 12.708 14.1 23.23 27.813 26.906c14.044 3.763 28.41-.562 38.186-10.063l10.938 29.438l6.72-26.094l21.405 5.718l14.155 38.093l8.28-32.06l20.908 5.593L436.5 205.53l9.188-35.56l16 4.28l15.656 42.156l9.156-35.5l.22.063l5.28-19.782l-23.97-27.47l-119.56-32.03c-4.09-12.39-14.137-22.582-27.595-26.188a39.4 39.4 0 0 0-7.938-1.28c-4.957-.29-9.84.372-14.437 1.843L220 16.124zm89.938 76.688a21 21 0 0 1 1.843.03c1.418.09 2.85.336 4.283.72c11.452 3.068 18.1 14.578 15.03 26.03c-3.067 11.45-14.61 18.1-26.062 15.032c-11.452-3.07-18.098-14.58-15.03-26.03c2.517-9.394 10.746-15.563 19.938-15.782z" vector-effect="non-scaling-stroke" stroke="none"/>
        </g>
      </g>
    </g>
    <g transform="translate(-330, -36)">
      <text id="ITEM_2_HEAD" text-anchor="start" font-weight="bold" font-size="34" fill="var(--inverse-text)" x="0.0" y="-10.0" data-bg-id="ITEM_2_BG" fill-opacity="1.0" style="font-size: 30px; font-family: Inter, Segoe UI, Kalam, Roboto, Helvetica, Arial, sans-serif; font-weight: 700; letter-spacing:-0.4px;" data-final-font-size="30">
        <tspan x="0.0" dy="30.25px">Society Investigation</tspan>
      </text>
      <rect id="ITEM_2_HEAD_FRAME" x="0" y="-10" width="846" height="44" fill="none"/>
      <text id="ITEM_2_BODY" text-anchor="start" font-size="24" fill="var(--inverse-text)" x="0.0" y="24.0" data-bg-id="ITEM_2_BG" style="font-size: 26px; font-family: Inter, Segoe UI, Kalam, Roboto, Helvetica, Arial, sans-serif; font-weight: 400;" data-final-font-size="26">
        <tspan x="0.0" dy="31.62px">Linnaean Society collects sworn statements from local residents</tspan>
      </text>
      <rect id="ITEM_2_BODY_FRAME" x="0" y="24" width="846" height="84" fill="none"/>
    </g>
  </g>
  <g transform="translate(960.0, 660.0)">
    <rect id="ITEM_3_BG" x="-600" y="-72" width="1200" height="176" rx="24" fill="var(--accent-4)" stroke="var(--accent-3)" filter="url(#svg50ce8959-shadow)" stroke-width="3" fill-opacity="1.0"/>
    <g transform="translate(-480.0, 0.0)">
      <circle r="60" fill="var(--background)" opacity="0.3"/>
      <circle id="ITEM_3_PAD" cx="0" cy="0" r="50" fill="var(--icon-pad-bg)" stroke="var(--primary-text)" opacity="0.9" fill-opacity="0.9" stroke-width="2"/>
      <circle id="ITEM_3_PAD_INNER" cx="0" cy="0" r="39.00" fill="var(--accent-4)" fill-opacity="0.22"/>
      <circle cx="0" cy="0" r="40" fill="none" stroke="var(--accent-2)" stroke-width="3" stroke-dasharray="6 4"/>
      <g id="ITEM_3_ICON" transform="translate(-39, -39)" data-icon-size="78" stroke-dasharray="6 4">
        <g transform="translate(-3.4821428571428523,-5.571428571428571) scale(2.7857142857142856)">
          <path d="M5 26H28V29C28 29.5523 27.5523 30 27 30H6C5.44772 30 5 29.5523 5 29V26Z" fill="#F9C23C"/>
          <path d="M6 26H27V27.5C27 28.3284 26.3284 29 25.5 29H7.5C6.67157 29 6 28.3284 6 27.5V26Z" fill="#D3D3D3"/>
          <path d="M5 3C5 2.44772 5.44772 2 6 2H27C27.5523 2 28 2.44772 28 3V26C28 26.5523 27.5523 27 27 27H6C5.44772 27 5 26.5523 5 26V3Z" fill="#FCD53F"/>
          <path d="M11 9C11 8.44772 11.4477 8 12 8H20C20.5523 8 21 8.44772 21 9V11C21 11.5523 20.5523 12 20 12H12C11.4477 12 11 11.5523 11 11V9Z" fill="#FFB02E"/>
          <path d="M7.48228 6C7.36097 5.15193 6.63162 4.5 5.75 4.5C4.7835 4.5 4 5.2835 4 6.25C4 6.9481 4.40876 7.55073 5 7.83159V8.33697C5.24076 8.28009 5.49187 8.25 5.75 8.25C7.46081 8.25 8.86287 9.57189 8.99053 11.25H9C9 11.3485 8.9806 11.446 8.94291 11.537C8.90522 11.628 8.84997 11.7107 8.78033 11.7803C8.71069 11.85 8.62801 11.9052 8.53701 11.9429C8.44602 11.9806 8.34849 12 8.25 12C8.15151 12 8.05398 11.9806 7.96299 11.9429C7.87199 11.9052 7.78931 11.85 7.71967 11.7803C7.65003 11.7107 7.59478 11.628 7.55709 11.537C7.5194 11.446 7.5 11.3485 7.5 11.25H7.48228C7.36097 10.4019 6.63162 9.75 5.75 9.75C4.7835 9.75 4 10.5335 4 11.5C4 12.1981 4.40876 12.8007 5 13.0816V13.587C5.24076 13.5301 5.49187 13.5 5.75 13.5C7.46081 13.5 8.86287 14.8219 8.99053 16.5H9C9 16.5985 8.9806 16.696 8.94291 16.787C8.90522 16.878 8.84997 16.9607 8.78033 17.0303C8.71069 17.1 8.62801 17.1552 8.53701 17.1929C8.44602 17.2306 8.34849 17.25 8.25 17.25C8.15151 17.25 8.05398 17.2306 7.96299 17.1929C7.87199 17.1552 7.78931 17.1 7.71967 17.0303C7.65003 16.9607 7.59478 16.878 7.55709 16.787C7.5194 16.696 7.5 16.5985 7.5 16.5H7.48228C7.36097 15.6519 6.63162 15 5.75 15C4.7835 15 4 15.7835 4 16.75C4 17.4481 4.40876 18.0507 5 18.3316V18.837C5.24076 18.7801 5.49187 18.75 5.75 18.75C7.46081 18.75 8.86287 20.0719 8.99053 21.75H9C9 21.8485 8.9806 21.946 8.94291 22.037C8.90522 22.128 8.84997 22.2107 8.78033 22.2803C8.71069 22.35 8.62801 22.4052 8.53701 22.4429C8.44602 22.4806 8.34849 22.5 8.25 22.5C8.15151 22.5 8.05398 22.4806 7.96299 22.4429C7.87199 22.4052 7.78931 22.35 7.71967 22.2803C7.65003 22.2107 7.59478 22.128 7.55709 22.037C7.5194 21.946 7.5 21.8485 7.5 21.75H7.48228C7.36097 20.9019 6.63162 20.25 5.75 20.25C4.7835 20.25 4 21.0335 4 22C4 22.6981 4.40876 23.3007 5 23.5816V25.163C3.56665 24.8245 2.5 23.5368 2.5 22C2.5 20.9218 3.02505 19.9662 3.83341 19.375C3.02505 18.7838 2.5 17.8282 2.5 16.75C2.5 15.6718 3.02505 14.7162 3.83341 14.125C3.02505 13.5338 2.5 12.5782 2.5 11.5C2.5 10.4218 3.02505 9.46622 3.83341 8.875C3.02505 8.28378 2.5 7.32821 2.5 6.25C2.5 4.45507 3.95507 3 5.75 3C7.46081 3 8.86287 4.32189 8.99053 6H9C9 6.09849 8.9806 6.19602 8.94291 6.28701C8.90522 6.37801 8.84997 6.46069 8.78033 6.53033C8.71069 6.59997 8.62801 6.65522 8.53701 6.69291C8.44602 6.7306 8.34849 6.75 8.25 6.75C8.15151 6.75 8.05398 6.7306 7.96299 6.69291C7.87199 6.65522 7.78931 6.59997 7.71967 6.53033C7.65003 6.46069 7.59478 6.37801 7.55709 6.28701C7.5194 6.19602 7.5 6.09849 7.5 6H7.48228Z" fill="#9B9B9B"/>
        </g>
      </g>
    </g>
    <g transform="translate(-330, -36)">
      <text id="ITEM_3_HEAD" text-anchor="start" font-weight="bold" font-size="34" fill="var(--primary-text)" x="0.0" y="-10.0" data-bg-id="ITEM_3_BG" fill-opacity="1.0" style="font-size: 30px; font-family: Inter, Segoe UI, Kalam, Roboto, Helvetica, Arial, sans-serif; font-weight: 700; letter-spacing:-0.4px;" data-final-font-size="30">
        <tspan x="0.0" dy="30.25px">Scientific Naming</tspan>
      </text>
      <rect id="ITEM_3_HEAD_FRAME" x="0" y="-10" width="846" height="44" fill="none"/>
      <text id="ITEM_3_BODY" text-anchor="start" font-size="24" fill="var(--primary-text)" x="0.0" y="24.0" data-bg-id="ITEM_3_BG" style="font-size: 26px; font-family: Inter, Segoe UI, Kalam, Roboto, Helvetica, Arial, sans-serif; font-weight: 400;" data-final-font-size="26">
        <tspan x="0.0" dy="31.62px">Researchers formally classify the creature as Scoliophis atlanticus</tspan>
      </text>
      <rect id="ITEM_3_BODY_FRAME" x="0" y="24" width="846" height="84" fill="none"/>
    </g>
  </g>
  <g transform="translate(960.0, 855.0)">
    <rect id="ITEM_4_BG" x="-600" y="-72" width="1200" height="176" rx="24" fill="var(--accent-5)" stroke="var(--accent-4)" filter="url(#svg50ce8959-shadow)" stroke-width="3" fill-opacity="1.0"/>
    <g transform="translate(-480.0, 0.0)">
      <circle r="60" fill="var(--background)" opacity="0.3"/>
      <circle id="ITEM_4_PAD" cx="0" cy="0" r="50" fill="var(--icon-pad-bg)" stroke="var(--primary-text)" opacity="0.9" fill-opacity="0.9" stroke-width="2"/>
      <circle id="ITEM_4_PAD_INNER" cx="0" cy="0" r="39.00" fill="var(--accent-5)" fill-opacity="0.22"/>
      <circle cx="0" cy="0" r="40" fill="none" stroke="var(--accent-3)" stroke-width="3" stroke-dasharray="6 4"/>
      <g id="ITEM_4_ICON" transform="translate(-39, -39)" data-icon-size="78" stroke-dasharray="6 4">
        <g transform="translate(0.0,0.0) scale(5.571428571428571)" vector-effect="non-scaling-stroke" stroke-width="2.65" stroke-linecap="round" stroke-linejoin="round" stroke-opacity="1.0">
          <path id="Vector" fill="none" d="M6 11.5a5.5 5.5 0 1 0 0 -11 5.5 5.5 0 0 0 0 11Z" vector-effect="non-scaling-stroke" stroke="#f1f5f9"/>
          <path id="Vector_2" stroke="#f1f5f9" d="M6 11.5a5.5 5.5 0 1 0 0 -11 5.5 5.5 0 0 0 0 11Z" vector-effect="non-scaling-stroke" fill="none"/>
          <path id="Vector_3" stroke="#f1f5f9" d="M13.5 13.5 10 10" vector-effect="non-scaling-stroke" fill="none"/>
        </g>
      </g>
    </g>
    <g transform="translate(-330, -36)">
      <text id="ITEM_4_HEAD" text-anchor="start" font-weight="bold" font-size="34" fill="var(--primary-text)" x="0.0" y="-10.0" data-bg-id="ITEM_4_BG" fill-opacity="1.0" style="font-size: 30px; font-family: Inter, Segoe UI, Kalam, Roboto, Helvetica, Arial, sans-serif; font-weight: 700; letter-spacing:-0.4px;" data-final-font-size="30">
        <tspan x="0.0" dy="30.25px">Specimen Re-evaluation</tspan>
      </text>
      <rect id="ITEM_4_HEAD_FRAME" x="0" y="-10" width="846" height="44" fill="none"/>
      <text id="ITEM_4_BODY" text-anchor="start" font-size="24" fill="var(--primary-text)" x="0.0" y="24.0" data-bg-id="ITEM_4_BG" style="font-size: 26px; font-family: Inter, Segoe UI, Kalam, Roboto, Helvetica, Arial, sans-serif; font-weight: 400;" data-final-font-size="26">
        <tspan x="0.0" dy="31.62px">Beach find identified as a deformed common snake</tspan>
      </text>
      <rect id="ITEM_4_BODY_FRAME" x="0" y="24" width="846" height="84" fill="none"/>
    </g>
  </g>
</svg>
