<?xml version='1.0' encoding='utf-8'?>
<svg xmlns="http://www.w3.org/2000/svg" width="1920" height="1080" viewBox="0 0 1920 1080" data-theme="light">
  <style>
        @font-face {
            font-family: 'Inter';
            src: url('assets/fonts/Inter-Regular.ttf') format('truetype');
            font-weight: 400;
            font-style: normal;
            font-display: swap;
        }
        @font-face {
            font-family: 'Inter';
            src: url('assets/fonts/Inter-Bold.ttf') format('truetype');
            font-weight: 600;
            font-style: normal;
            font-display: swap;
        }
        @font-face {
            font-family: 'Inter';
            src: url('assets/fonts/Inter-Bold.ttf') format('truetype');
            font-weight: 800;
            font-style: normal;
            font-display: swap;
        }
        
:root {
    --background: #f8fafc;
    --panel: #ffffff;
    --primary-text: #0f172a;
    --muted-text: #64748b;
    --inverse-text: #ffffff;
    --border: #e2e8f0;
    --shadow-color: #000000;
    --icon-pad-bg: #1e293b;
    --art-glow: #0891b2;
    --art-glow-opacity: 0.10;
    --art-sheen: #ffffff;
    --art-sheen-opacity: 0.34;
    --art-shadow: #0f172a;
    --art-shadow-opacity: 0.14;
    --art-muted-line: #94a3b8;
    --art-panel-tint: #f1f5f9;
    --font-family: 'Inter', 'Segoe UI', 'Kalam', Roboto, Helvetica, Arial, sans-serif;
    --radius-xl: 16px;
    --font-family-headline: 'Inter', 'Segoe UI', 'Kalam', Roboto, Helvetica, Arial, sans-serif;
    --font-family-body: 'Inter', 'Segoe UI', 'Kalam', Roboto, Helvetica, Arial, sans-serif;
    --font-heading: 'Inter', 'Segoe UI', 'Kalam', Roboto, Helvetica, Arial, sans-serif;
    --font-body: 'Inter', 'Segoe UI', 'Kalam', Roboto, Helvetica, Arial, sans-serif;
    --font-size-h1: 56px;
    --font-size-h2: 40px;
    --font-size-h3: 28px;
    --font-size-body: 24px;
    --font-size-caption: 18px;
    --secondary-text: var(--muted-text);
    --panel-border: var(--border);
    --font-weight-normal: 400;
    --font-weight-medium: 500;
    --font-weight-semibold: 600;
    --font-weight-bold: 700;
    --spacing-gutter-pct: 0.07;
    --spacing-top-pct: 0.15;
    --spacing-bottom-pct: 0.07;
    --spacing-title-y-pct: 0.055;
    --accent-1: #d97706;
    --accent-2: #ea580c;
    --accent-3: #dc2626;
    --accent-4: #65a30d;
    --accent-5: #16a34a;
    --accent-6: #92400e;
}
:root[data-theme="dark"] {
    --background: #0f172a;
    --panel: #1e293b;
    --primary-text: #f1f5f9;
    --muted-text: #94a3b8;
    --inverse-text: #0f172a;
    --border: #334155;
    --shadow-color: #000000;
    --icon-pad-bg: #1e293b;
    --art-glow: #7dd3fc;
    --art-glow-opacity: 0.18;
    --art-sheen: #ffffff;
    --art-sheen-opacity: 0.18;
    --art-shadow: #000000;
    --art-shadow-opacity: 0.28;
    --art-muted-line: #64748b;
    --art-panel-tint: #1e293b;
    --accent-1: #fbbf24;
    --accent-2: #fb923c;
    --accent-3: #f87171;
    --accent-4: #a3e635;
    --accent-5: #4ade80;
    --accent-6: #d4a574;
}
:root[data-theme="light"] {
    --background: #f8fafc;
    --panel: #ffffff;
    --primary-text: #0f172a;
    --muted-text: #64748b;
    --inverse-text: #ffffff;
    --border: #e2e8f0;
    --shadow-color: #000000;
    --icon-pad-bg: #1e293b;
    --art-glow: #0891b2;
    --art-glow-opacity: 0.10;
    --art-sheen: #ffffff;
    --art-sheen-opacity: 0.34;
    --art-shadow: #0f172a;
    --art-shadow-opacity: 0.14;
    --art-muted-line: #94a3b8;
    --art-panel-tint: #f1f5f9;
    --accent-1: #d97706;
    --accent-2: #ea580c;
    --accent-3: #dc2626;
    --accent-4: #65a30d;
    --accent-5: #16a34a;
    --accent-6: #92400e;
}</style>
  <rect x="0" y="0" width="1.92E+3" height="1.08E+3" fill="#252a34" stroke="none" id="programmatic_background"/>
  <line id="HEADER_DECOR" x1="960.0" x2="1080.0" y1="135.0" y2="135.0" stroke="var(--accent-1)" stroke-width="6" stroke-linecap="round"/>
  <defs>
    <pattern id="svg8f8a5bb5-napkin-hatch" patternUnits="userSpaceOnUse" width="12" height="12">
      <path d="M -3 12 L 12 -3 M 0 15 L 15 0" fill="none" stroke="var(--primary-text)" stroke-width="1" stroke-opacity="0.05"/>
    </pattern>
    <filter id="svg8f8a5bb5-shadow" x="-30%" y="-30%" width="160%" height="160%">
      <feDropShadow dx="0" dy="2" stdDeviation="3" flood-color="#000000" flood-opacity="0.08"/>
      <feDropShadow dx="0" dy="6" stdDeviation="10" flood-color="#000000" flood-opacity="0.12"/>
    </filter>
    <radialGradient id="svg8f8a5bb5-universal-edge-vignette" cx="50%" cy="50%" r="72%">
      <stop offset="0%" stop-color="var(--background)" stop-opacity="0"/>
      <stop offset="72%" stop-color="var(--background)" stop-opacity="0.12"/>
      <stop offset="100%" stop-color="var(--primary-text)" stop-opacity="0.08"/>
    </radialGradient>
    <linearGradient id="svg8f8a5bb5-universal-surface-sheen" x1="0%" y1="0%" x2="100%" y2="100%">
      <stop offset="0%" stop-color="var(--art-sheen)" stop-opacity="var(--art-sheen-opacity)"/>
      <stop offset="46%" stop-color="var(--art-sheen)" stop-opacity="0.035"/>
      <stop offset="100%" stop-color="var(--art-panel-tint)" stop-opacity="0.14"/>
    </linearGradient>
    <radialGradient id="svg8f8a5bb5-universal-icon-aura" cx="50%" cy="42%" r="64%">
      <stop offset="0%" stop-color="var(--art-glow)" stop-opacity="var(--art-glow-opacity)"/>
      <stop offset="100%" stop-color="var(--background)" stop-opacity="0"/>
    </radialGradient>
    <filter id="svg8f8a5bb5-text-glow" x="-20%" y="-20%" width="140%" height="140%">
      <feDropShadow dx="0" dy="0" stdDeviation="2" flood-color="#000000" flood-opacity="0.4"/>
    </filter>
    <marker id="svg8f8a5bb5-arrowhead" markerWidth="10" markerHeight="7" refX="9" refY="3.5" orient="auto" markerUnits="strokeWidth">
      <polygon points="0 0, 10 3.5, 0 7" fill="var(--muted-text)" opacity="0.6"/>
    </marker>
  </defs>
  <rect width="100%" height="100%" fill="var(--background)" id="CANVAS_BG"/>
  <rect width="100%" height="100%" fill="url(#svg8f8a5bb5-napkin-hatch)"/>
  <rect id="UNIVERSAL_EDGE_VIGNETTE" width="100%" height="100%" fill="url(#svg8f8a5bb5-universal-edge-vignette)" opacity="0.62"/>
  <text id="TITLE" x="960.0" y="59" text-anchor="middle" font-size="63" font-weight="700" fill="#0f172a" style="font-size: 60px; font-family: Inter, Segoe UI, Kalam, Roboto, Helvetica, Arial, sans-serif; font-weight: 700; letter-spacing:-1.2px;" data-final-font-size="60">
    <tspan x="960.0" dy="68.00px">The Okapi's Path to Zoology</tspan>
  </text>
  <rect id="TITLE_FRAME" x="134" y="59" width="1652" height="103" fill="none"/>
  <g id="DIAGRAM_SCALER">
    <line x1="960" y1="200" x2="960" y2="960" stroke="var(--accent-1)" stroke-width="34" stroke-linecap="round" opacity="0.055"/>
    <line x1="960" y1="200" x2="960" y2="960" stroke="var(--accent-1)" stroke-width="34" stroke-linecap="round" opacity="0.055"/>
    <line x1="960" y1="200" x2="960" y2="960" stroke="var(--accent-1)" stroke-width="34" stroke-linecap="round" opacity="0.055"/>
    <line x1="960" y1="200" x2="960" y2="960" stroke="var(--accent-1)" stroke-width="34" stroke-linecap="round" opacity="0.055"/>
    <line x1="960" y1="200" x2="960" y2="960" stroke="var(--accent-1)" stroke-width="34" stroke-linecap="round" opacity="0.055"/>
    <line x1="960" y1="200" x2="960" y2="960" stroke="var(--accent-1)" stroke-width="34" stroke-linecap="round" opacity="0.055"/>
    <line x1="960" y1="200" x2="960" y2="960" stroke="var(--accent-1)" stroke-width="34" stroke-linecap="round" opacity="0.055"/>
    <line x1="960" y1="200" x2="960" y2="960" stroke="var(--accent-1)" stroke-width="34" stroke-linecap="round" opacity="0.055"/>
    <line x1="960" y1="200" x2="960" y2="960" stroke="var(--accent-1)" stroke-width="34" stroke-linecap="round" opacity="0.055"/>
    <line x1="960" y1="200" x2="960" y2="960" stroke="var(--accent-1)" stroke-width="34" stroke-linecap="round" opacity="0.055"/>
    <line x1="960" y1="200" x2="960" y2="960" stroke="var(--accent-1)" stroke-width="34" stroke-linecap="round" opacity="0.055"/>
    <line x1="960" y1="200" x2="960" y2="960" stroke="var(--accent-1)" stroke-width="34" stroke-linecap="round" opacity="0.055"/>
    <line x1="960" y1="200" x2="960" y2="960" stroke="var(--accent-1)" stroke-width="34" stroke-linecap="round" opacity="0.055"/>
    <line x1="960" y1="200" x2="960" y2="960" stroke="var(--accent-1)" stroke-width="34" stroke-linecap="round" opacity="0.055"/>
    <line x1="960" y1="200" x2="960" y2="960" stroke="var(--accent-1)" stroke-width="34" stroke-linecap="round" opacity="0.055"/>
    <line x1="960" y1="200" x2="960" y2="960" stroke="var(--accent-1)" stroke-width="34" stroke-linecap="round" opacity="0.055"/>
    <line x1="960" y1="200" x2="960" y2="960" stroke="var(--accent-1)" stroke-width="34" stroke-linecap="round" opacity="0.055"/>
    <line x1="960" y1="200" x2="960" y2="960" stroke="var(--accent-1)" stroke-width="34" stroke-linecap="round" opacity="0.055"/>
    <line x1="960" y1="200" x2="960" y2="960" stroke="var(--accent-1)" stroke-width="34" stroke-linecap="round" opacity="0.055"/>
    <line x1="960" y1="200" x2="960" y2="960" stroke="var(--accent-1)" stroke-width="34" stroke-linecap="round" opacity="0.055"/>
    <line x1="960" y1="200" x2="960" y2="960" stroke="var(--accent-1)" stroke-width="34" stroke-linecap="round" opacity="0.055"/>
    <line x1="960" y1="200" x2="960" y2="960" stroke="var(--accent-1)" stroke-width="34" stroke-linecap="round" opacity="0.055"/>
    <line x1="960" y1="200" x2="960" y2="960" stroke="var(--accent-1)" stroke-width="34" stroke-linecap="round" opacity="0.055"/>
    <line x1="960" y1="200" x2="960" y2="960" stroke="var(--accent-1)" stroke-width="34" stroke-linecap="round" opacity="0.055"/>
    <line x1="960" y1="200" x2="960" y2="960" stroke="var(--accent-1)" stroke-width="34" stroke-linecap="round" opacity="0.055"/>
    <line x1="960" y1="200" x2="960" y2="960" stroke="var(--accent-1)" stroke-width="34" stroke-linecap="round" opacity="0.055"/>
    <line x1="960" y1="200" x2="960" y2="960" stroke="var(--accent-1)" stroke-width="34" stroke-linecap="round" opacity="0.055"/>
    <line x1="960" y1="200" x2="960" y2="960" stroke="var(--accent-1)" stroke-width="34" stroke-linecap="round" opacity="0.055"/>
    <line x1="960" y1="200" x2="960" y2="960" stroke="var(--accent-1)" stroke-width="34" stroke-linecap="round" opacity="0.055"/>
    <line x1="960" y1="200" x2="960" y2="960" stroke="var(--border)" stroke-width="20" stroke-linecap="round" opacity="0.1"/>
    <line x1="960" y1="200" x2="960" y2="960" stroke="var(--muted-text)" stroke-width="7" stroke-linecap="round" opacity="0.48"/>
    <circle cx="960" cy="200" r="10" fill="var(--border)" opacity="0.35"/>
    <path d="M 960 992 L 980 960 L 940 960 Z" fill="var(--muted-text)" opacity="0.5"/>
    <g transform="translate(960, 240)">
      <circle cx="0" cy="0" r="18" fill="var(--panel)" stroke="var(--border)" stroke-width="4"/>
      <circle cx="0" cy="0" r="7" fill="var(--accent-1)"/>
      <line x1="0" y1="0" x2="220" y2="0" stroke="var(--accent-1)" stroke-width="16" stroke-linecap="round" opacity="0.18"/>
      <line x1="0" y1="0" x2="220" y2="0" stroke="var(--accent-1)" stroke-width="4" stroke-linecap="round"/>
      <circle cx="220" cy="0" r="60" fill="var(--accent-1)" opacity="0.14"/>
      <circle id="ITEM_1_NODE" cx="220" cy="0" r="48" fill="var(--panel)" stroke="var(--accent-1)" stroke-width="3"/>
      <circle id="ITEM_1_PAD" cx="220" cy="0" r="42" fill="var(--icon-pad-bg)" stroke="var(--primary-text)" opacity="0.94" fill-opacity="0.9" stroke-width="2"/>
      <circle id="ITEM_1_PAD_INNER" cx="220" cy="0" r="32.76" fill="var(--accent-1)" fill-opacity="0.22"/>
      <circle cx="220" cy="0" r="32" fill="none" stroke="var(--accent-1)" stroke-width="3" stroke-dasharray="6 4"/>
      <g id="ITEM_1_ICON" transform="translate(190, -30)" data-icon-size="60" stroke-dasharray="6 4">
        <g transform="translate(-8.826666666666664,-8.826666666666664) scale(3.2355555555555555)" vector-effect="non-scaling-stroke" fill="#f1f5f9" fill-opacity="1.0" stroke="none">
          <path fill="#f1f5f9" d="M16 9h.41l-13 13L2 20.59l13-13V9zm0-5v4h4l2-6z" vector-effect="non-scaling-stroke" stroke="none"/>
        </g>
      </g>
      <g transform="translate(332, 0)">
        <path id="ITEM_1_TEXT_BG" d="M -24 -46 L 374 -46 L 414 -8 L 414 140 L 30 140 L -46 82 L -46 16 Z" fill="var(--panel)" fill-opacity="0.96" stroke="var(--primary-text)" stroke-opacity="0.12" stroke-width="1.5" filter="url(#svg8f8a5bb5-shadow)"/>
        <rect x="386" y="-28" width="10" height="104" rx="5" fill="var(--accent-1)" opacity="0.7"/>
        <line x1="22" y1="10" x2="348" y2="10" stroke="var(--accent-1)" stroke-width="3" opacity="0.3"/>
        <text id="ITEM_1_HEAD" data-bg-id="ITEM_1_TEXT_BG" font-weight="700" font-size="26" fill="var(--primary-text)" x="22.0" y="-28.0" fill-opacity="1.0" style="font-size: 30px; font-family: Inter, Segoe UI, Kalam, Roboto, Helvetica, Arial, sans-serif; font-weight: 700; letter-spacing:-0.4px;" data-final-font-size="30">
          <tspan x="22.0" dy="25.25px">Local Knowledge</tspan>
        </text>
        <rect id="ITEM_1_HEAD_FRAME" x="22" y="-28" width="334" height="34" fill="none"/>
        <text id="ITEM_1_BODY" data-bg-id="ITEM_1_TEXT_BG" font-size="18.5" fill="var(--primary-text)" x="22.0" y="20.0" style="font-size: 25px; font-family: Inter, Segoe UI, Kalam, Roboto, Helvetica, Arial, sans-serif; font-weight: 400;" data-final-font-size="25">
          <tspan x="22.0" dy="22.90px">Indigenous people and hunters</tspan>
          <tspan x="22.0" dy="28.75px">knew the animal first</tspan>
        </text>
        <rect id="ITEM_1_BODY_FRAME" x="22" y="20" width="352" height="72" fill="none"/>
      </g>
    </g>
    <g transform="translate(960, 395)">
      <circle cx="0" cy="0" r="18" fill="var(--panel)" stroke="var(--border)" stroke-width="4"/>
      <circle cx="0" cy="0" r="7" fill="var(--accent-2)"/>
      <line x1="0" y1="0" x2="-220" y2="0" stroke="var(--accent-2)" stroke-width="16" stroke-linecap="round" opacity="0.18"/>
      <line x1="0" y1="0" x2="-220" y2="0" stroke="var(--accent-2)" stroke-width="4" stroke-linecap="round"/>
      <circle cx="-220" cy="0" r="60" fill="var(--accent-2)" opacity="0.14"/>
      <circle id="ITEM_2_NODE" cx="-220" cy="0" r="48" fill="var(--panel)" stroke="var(--accent-2)" stroke-width="3"/>
      <circle id="ITEM_2_PAD" cx="-220" cy="0" r="42" fill="var(--icon-pad-bg)" stroke="var(--primary-text)" opacity="0.94" fill-opacity="0.9" stroke-width="2"/>
      <circle id="ITEM_2_PAD_INNER" cx="-220" cy="0" r="32.76" fill="var(--accent-2)" fill-opacity="0.22"/>
      <circle cx="-220" cy="0" r="32" fill="none" stroke="var(--accent-2)" stroke-width="3" stroke-dasharray="6 4"/>
      <g id="ITEM_2_ICON" transform="translate(-250, -30)" data-icon-size="60" stroke-dasharray="6 4">
        <g transform="translate(-2.759999999999998,-2.759999999999998) scale(4.68)" vector-effect="non-scaling-stroke" stroke-width="2.43" stroke-linecap="round" stroke-linejoin="round" stroke-opacity="1.0">
          <path id="Vector" fill="none" d="M6 11.5a5.5 5.5 0 1 0 0 -11 5.5 5.5 0 0 0 0 11Z" vector-effect="non-scaling-stroke" stroke="#f1f5f9"/>
          <path id="Vector_2" stroke="#f1f5f9" d="M6 11.5a5.5 5.5 0 1 0 0 -11 5.5 5.5 0 0 0 0 11Z" vector-effect="non-scaling-stroke" fill="none"/>
          <path id="Vector_3" stroke="#f1f5f9" d="M13.5 13.5 10 10" vector-effect="non-scaling-stroke" fill="none"/>
        </g>
      </g>
      <g transform="translate(-332, 0)">
        <path id="ITEM_2_TEXT_BG" d="M 24 -46 L -374 -46 L -414 -8 L -414 140 L -30 140 L 46 82 L 46 16 Z" fill="var(--panel)" fill-opacity="0.96" stroke="var(--primary-text)" stroke-opacity="0.12" stroke-width="1.5" filter="url(#svg8f8a5bb5-shadow)"/>
        <rect x="-396" y="-28" width="10" height="104" rx="5" fill="var(--accent-2)" opacity="0.7"/>
        <line x1="-22" y1="10" x2="-348" y2="10" stroke="var(--accent-2)" stroke-width="3" opacity="0.3"/>
        <text id="ITEM_2_HEAD" data-bg-id="ITEM_2_TEXT_BG" text-anchor="end" font-weight="700" font-size="26" fill="var(--primary-text)" x="-22.0" y="-28.0" fill-opacity="1.0" style="font-size: 30px; font-family: Inter, Segoe UI, Kalam, Roboto, Helvetica, Arial, sans-serif; font-weight: 700; letter-spacing:-0.4px;" data-final-font-size="30">
          <tspan x="-22.0" dy="25.25px">Informant Clues</tspan>
        </text>
        <rect id="ITEM_2_HEAD_FRAME" x="-356" y="-28" width="334" height="34" fill="none"/>
        <text id="ITEM_2_BODY" data-bg-id="ITEM_2_TEXT_BG" text-anchor="end" font-size="18.5" fill="var(--primary-text)" x="-22.0" y="20.0" style="font-size: 25px; font-family: Inter, Segoe UI, Kalam, Roboto, Helvetica, Arial, sans-serif; font-weight: 400;" data-final-font-size="25">
          <tspan x="-22.0" dy="22.90px">Harry Johnston followed local</tspan>
          <tspan x="-22.0" dy="28.75px">leads to find specimens</tspan>
        </text>
        <rect id="ITEM_2_BODY_FRAME" x="-374" y="20" width="352" height="72" fill="none"/>
      </g>
    </g>
    <g transform="translate(960, 550)">
      <circle cx="0" cy="0" r="18" fill="var(--panel)" stroke="var(--border)" stroke-width="4"/>
      <circle cx="0" cy="0" r="7" fill="var(--accent-3)"/>
      <line x1="0" y1="0" x2="220" y2="0" stroke="var(--accent-3)" stroke-width="16" stroke-linecap="round" opacity="0.18"/>
      <line x1="0" y1="0" x2="220" y2="0" stroke="var(--accent-3)" stroke-width="4" stroke-linecap="round"/>
      <circle cx="220" cy="0" r="60" fill="var(--accent-3)" opacity="0.14"/>
      <circle id="ITEM_3_NODE" cx="220" cy="0" r="48" fill="var(--panel)" stroke="var(--accent-3)" stroke-width="3"/>
      <circle id="ITEM_3_PAD" cx="220" cy="0" r="42" fill="var(--icon-pad-bg)" stroke="var(--primary-text)" opacity="0.94" fill-opacity="0.9" stroke-width="2"/>
      <circle id="ITEM_3_PAD_INNER" cx="220" cy="0" r="32.76" fill="var(--accent-3)" fill-opacity="0.22"/>
      <circle cx="220" cy="0" r="32" fill="none" stroke="var(--accent-3)" stroke-width="3" stroke-dasharray="6 4"/>
      <g id="ITEM_3_ICON" transform="translate(190, -30)" data-icon-size="60" stroke-dasharray="6 4">
        <g transform="translate(-8.12072727272727,-8.12072727272727) scale(2.3825454545454545)">
          <path d="M24.4853 3.27211C25.6569 2.10054 27.5564 2.10054 28.7279 3.27211C29.8995 4.44368 29.8995 6.34318 28.7279 7.51475L10.6967 25.546C10.5323 25.7104 10.2818 25.7364 10.0903 25.6239C10.018 25.5815 9.94749 25.5336 9.86715 25.51L7.1556 24.7138L6.48825 22.1422C6.46587 22.0559 6.4157 21.98 6.37191 21.9024C6.26436 21.7118 6.29174 21.4657 6.45406 21.3033L24.4853 3.27211Z" fill="#0074BA"/>
          <path d="M23.4265 3.62749C23.817 3.23696 24.4501 3.23696 24.8407 3.62749L29.435 8.22185C29.8256 8.61237 29.8256 9.24554 29.435 9.63606L24.4853 14.5858C24.0948 14.9763 23.4616 14.9763 23.0711 14.5858C22.6805 14.1953 22.6805 13.5621 23.0711 13.1716L27.3137 8.92896L23.4265 5.0417C23.0359 4.65118 23.0359 4.01801 23.4265 3.62749Z" fill="#D3D3D3"/>
          <path d="M13.8805 13.1734C14.0758 12.9781 14.3924 12.9781 14.5876 13.1734L18.8303 17.416C19.0255 17.6113 19.0255 17.9279 18.8303 18.1231L18.1232 18.8302C17.9279 19.0255 17.6113 19.0255 17.4161 18.8302L13.1734 14.5876C12.9782 14.3923 12.9782 14.0757 13.1734 13.8805L13.8805 13.1734Z" fill="#D3D3D3"/>
          <path d="M6.45405 22.0104L9.98958 25.5459L7.98546 27.55C7.6754 27.8601 7.30113 28.0984 6.88902 28.2482L2.80229 29.7337C2.65021 29.789 2.47987 29.7512 2.36544 29.6368C2.25108 29.5224 2.21325 29.3522 2.26841 29.2002L3.75179 25.1119C3.90156 24.6992 4.1401 24.3243 4.45057 24.0139L6.45405 22.0104Z" fill="#D3D3D3"/>
          <path d="M6.8076 26.6065C6.41708 26.997 5.78391 26.997 5.39339 26.6065C5.00286 26.216 5.00286 25.5828 5.39339 25.1923C5.78391 24.8018 6.41708 24.8018 6.8076 25.1923C7.19813 25.5828 7.19813 26.216 6.8076 26.6065Z" fill="#636363"/>
        </g>
      </g>
      <g transform="translate(332, 0)">
        <path id="ITEM_3_TEXT_BG" d="M -24 -46 L 374 -46 L 414 -8 L 414 140 L 30 140 L -46 82 L -46 16 Z" fill="var(--panel)" fill-opacity="0.96" stroke="var(--primary-text)" stroke-opacity="0.12" stroke-width="1.5" filter="url(#svg8f8a5bb5-shadow)"/>
        <rect x="386" y="-28" width="10" height="104" rx="5" fill="var(--accent-3)" opacity="0.7"/>
        <line x1="22" y1="10" x2="348" y2="10" stroke="var(--accent-3)" stroke-width="3" opacity="0.3"/>
        <text id="ITEM_3_HEAD" data-bg-id="ITEM_3_TEXT_BG" font-weight="700" font-size="26" fill="var(--accent-3)" x="22.0" y="-28.0" fill-opacity="1.0" style="font-size: 30px; font-family: Inter, Segoe UI, Kalam, Roboto, Helvetica, Arial, sans-serif; font-weight: 700; letter-spacing:-0.4px;" data-final-font-size="30">
          <tspan x="22.0" dy="25.25px">Initial Description</tspan>
        </text>
        <rect id="ITEM_3_HEAD_FRAME" x="22" y="-28" width="334" height="34" fill="none"/>
        <text id="ITEM_3_BODY" data-bg-id="ITEM_3_TEXT_BG" font-size="18.5" fill="var(--primary-text)" x="22.0" y="20.0" style="font-size: 26px; font-family: Inter, Segoe UI, Kalam, Roboto, Helvetica, Arial, sans-serif; font-weight: 400;" data-final-font-size="26">
          <tspan x="22.0" dy="23.24px">Sclater first named it</tspan>
          <tspan x="22.0" dy="29.90px">a zebra-like horse species</tspan>
        </text>
        <rect id="ITEM_3_BODY_FRAME" x="22" y="20" width="352" height="72" fill="none"/>
      </g>
    </g>
    <g transform="translate(960, 705)">
      <circle cx="0" cy="0" r="18" fill="var(--panel)" stroke="var(--border)" stroke-width="4"/>
      <circle cx="0" cy="0" r="7" fill="var(--accent-4)"/>
      <line x1="0" y1="0" x2="-220" y2="0" stroke="var(--accent-4)" stroke-width="16" stroke-linecap="round" opacity="0.18"/>
      <line x1="0" y1="0" x2="-220" y2="0" stroke="var(--accent-4)" stroke-width="4" stroke-linecap="round"/>
      <circle cx="-220" cy="0" r="60" fill="var(--accent-4)" opacity="0.14"/>
      <circle id="ITEM_4_NODE" cx="-220" cy="0" r="48" fill="var(--panel)" stroke="var(--accent-4)" stroke-width="3"/>
      <circle id="ITEM_4_PAD" cx="-220" cy="0" r="42" fill="var(--icon-pad-bg)" stroke="var(--primary-text)" opacity="0.94" fill-opacity="0.9" stroke-width="2"/>
      <circle id="ITEM_4_PAD_INNER" cx="-220" cy="0" r="32.76" fill="var(--accent-4)" fill-opacity="0.22"/>
      <circle cx="-220" cy="0" r="32" fill="none" stroke="var(--accent-4)" stroke-width="3" stroke-dasharray="6 4"/>
      <g id="ITEM_4_ICON" transform="translate(-250, -30)" data-icon-size="60" stroke-dasharray="6 4">
        <g transform="translate(-5.536271186440681,-5.5362711864406755) scale(0.1388135593220339)" vector-effect="non-scaling-stroke" fill="#f1f5f9" fill-opacity="1.0" stroke="none">
          <path fill="#f1f5f9" d="m187.406 22.22l-41.562 41.843l62.875 29.843l-8 16.875l-68.845-32.655L59.97 150.53l33.31 96.97l56.876-7.156l10.53-42.47l18.126 4.47l-45.843 185.25l55.31-49.656l10-9l4.94 12.5l14.81 37.53l31.25-41.624l8.126-10.844l7.25 11.47l30.406 48.217l22.657-46.75l5.092-10.5l9.125 7.25l62.532 49.782l-62.814-182.22l17.656-6.094l12.782 37.063l60.562-.94l26.47-101.874l-72.72-62.344l-70.125 38.844l-9.06-16.375l64.03-35.468l-29.75-25.53l-144.094-8.813zm190.688 85.5l13.28 67.218l-107.28-16.25l94-50.97zm-246.188.936L229.97 160l-116.25 13.47zm123.188 122.5l55.844 64.75l-36.25 12.875l-17.407-42.655l-15.374 43.344l-35.344-13.564l48.532-64.75zm74.344 126.938L304.53 409.47l-7.342 15.155l-8.97-14.25l-32.124-50.97l-33.156 44.19l-10.063 13.342l-6.125-15.53l-15.97-40.594l-30.436 27.312l25.53 66.406l61.407 35.22l98.814-39.563l16.937-65.343l-33.592-26.75z" vector-effect="non-scaling-stroke" stroke="none"/>
        </g>
      </g>
      <g transform="translate(-332, 0)">
        <path id="ITEM_4_TEXT_BG" d="M 24 -46 L -374 -46 L -414 -8 L -414 140 L -30 140 L 46 82 L 46 16 Z" fill="var(--panel)" fill-opacity="0.96" stroke="var(--primary-text)" stroke-opacity="0.12" stroke-width="1.5" filter="url(#svg8f8a5bb5-shadow)"/>
        <rect x="-396" y="-28" width="10" height="104" rx="5" fill="var(--accent-4)" opacity="0.7"/>
        <line x1="-22" y1="10" x2="-348" y2="10" stroke="var(--accent-4)" stroke-width="3" opacity="0.3"/>
        <text id="ITEM_4_HEAD" data-bg-id="ITEM_4_TEXT_BG" text-anchor="end" font-weight="700" font-size="26" fill="var(--primary-text)" x="-22.0" y="-28.0" fill-opacity="1.0" style="font-size: 30px; font-family: Inter, Segoe UI, Kalam, Roboto, Helvetica, Arial, sans-serif; font-weight: 700; letter-spacing:-0.4px;" data-final-font-size="30">
          <tspan x="-22.0" dy="25.25px">Anatomical Correction</tspan>
        </text>
        <rect id="ITEM_4_HEAD_FRAME" x="-356" y="-28" width="334" height="34" fill="none"/>
        <text id="ITEM_4_BODY" data-bg-id="ITEM_4_TEXT_BG" text-anchor="end" font-size="18.5" fill="var(--primary-text)" x="-22.0" y="20.0" style="font-size: 26px; font-family: Inter, Segoe UI, Kalam, Roboto, Helvetica, Arial, sans-serif; font-weight: 400;" data-final-font-size="26">
          <tspan x="-22.0" dy="23.24px">Skulls and hides revealed</tspan>
          <tspan x="-22.0" dy="29.90px">its giraffe family ties</tspan>
        </text>
        <rect id="ITEM_4_BODY_FRAME" x="-374" y="20" width="352" height="72" fill="none"/>
      </g>
    </g>
    <g transform="translate(960, 860)">
      <circle cx="0" cy="0" r="18" fill="var(--panel)" stroke="var(--border)" stroke-width="4"/>
      <circle cx="0" cy="0" r="7" fill="var(--accent-5)"/>
      <line x1="0" y1="0" x2="220" y2="0" stroke="var(--accent-5)" stroke-width="16" stroke-linecap="round" opacity="0.18"/>
      <line x1="0" y1="0" x2="220" y2="0" stroke="var(--accent-5)" stroke-width="4" stroke-linecap="round"/>
      <circle cx="220" cy="0" r="60" fill="var(--accent-5)" opacity="0.14"/>
      <circle id="ITEM_5_NODE" cx="220" cy="0" r="48" fill="var(--panel)" stroke="var(--accent-5)" stroke-width="3"/>
      <circle id="ITEM_5_PAD" cx="220" cy="0" r="42" fill="var(--icon-pad-bg)" stroke="var(--primary-text)" opacity="0.94" fill-opacity="0.9" stroke-width="2"/>
      <circle id="ITEM_5_PAD_INNER" cx="220" cy="0" r="32.76" fill="var(--accent-5)" fill-opacity="0.22"/>
      <circle cx="220" cy="0" r="32" fill="none" stroke="var(--accent-5)" stroke-width="3" stroke-dasharray="6 4"/>
      <g id="ITEM_5_ICON" transform="translate(190, -30)" data-icon-size="60" stroke-dasharray="6 4">
        <g transform="translate(-2.759999999999998,-2.7599999999999985) scale(4.68)" vector-effect="non-scaling-stroke" stroke-width="2.43" stroke-linecap="round" stroke-linejoin="round" stroke-opacity="1.0">
          <path id="Vector" fill="none" d="M1.5 5h11v7c0 0.2652 -0.1054 0.5196 -0.2929 0.7071S11.7652 13 11.5 13h-9c-0.26522 0 -0.51957 -0.1054 -0.70711 -0.2929C1.60536 12.5196 1.5 12.2652 1.5 12V5Z" vector-effect="non-scaling-stroke" stroke="#f1f5f9"/>
          <path id="Vector_2" fill="none" d="M13.5 4V2c0 -0.55228 -0.4477 -1 -1 -1l-11 0c-0.552285 0 -1 0.44772 -1 1v2c0 0.55228 0.447715 1 1 1l11 0c0.5523 0 1 -0.44772 1 -1Z" vector-effect="non-scaling-stroke" stroke="#f1f5f9"/>
          <path id="Vector_3" stroke="#f1f5f9" d="M1.5 5h11v7c0 0.2652 -0.1054 0.5196 -0.2929 0.7071S11.7652 13 11.5 13h-9c-0.26522 0 -0.51957 -0.1054 -0.70711 -0.2929C1.60536 12.5196 1.5 12.2652 1.5 12V5v0Z" vector-effect="non-scaling-stroke" fill="none"/>
          <path id="Vector_4" stroke="#f1f5f9" d="M13.5 4V2c0 -0.55228 -0.4477 -1 -1 -1l-11 0c-0.552285 0 -1 0.44772 -1 1v2c0 0.55228 0.447715 1 1 1l11 0c0.5523 0 1 -0.44772 1 -1Z" vector-effect="non-scaling-stroke" fill="none"/>
          <path id="Vector_5" stroke="#f1f5f9" d="M5.5 8h3" vector-effect="non-scaling-stroke" fill="none"/>
        </g>
      </g>
      <g transform="translate(332, 0)">
        <path id="ITEM_5_TEXT_BG" d="M -24 -46 L 374 -46 L 414 -8 L 414 140 L 30 140 L -46 82 L -46 16 Z" fill="var(--panel)" fill-opacity="0.96" stroke="var(--primary-text)" stroke-opacity="0.12" stroke-width="1.5" filter="url(#svg8f8a5bb5-shadow)"/>
        <rect x="386" y="-28" width="10" height="104" rx="5" fill="var(--accent-5)" opacity="0.7"/>
        <line x1="22" y1="10" x2="348" y2="10" stroke="var(--accent-5)" stroke-width="3" opacity="0.3"/>
        <text id="ITEM_5_HEAD" data-bg-id="ITEM_5_TEXT_BG" font-weight="700" font-size="26" fill="var(--primary-text)" x="22.0" y="-28.0" fill-opacity="1.0" style="font-size: 30px; font-family: Inter, Segoe UI, Kalam, Roboto, Helvetica, Arial, sans-serif; font-weight: 700; letter-spacing:-0.4px;" data-final-font-size="30">
          <tspan x="22.0" dy="25.25px">Formal Taxonomy</tspan>
        </text>
        <rect id="ITEM_5_HEAD_FRAME" x="22" y="-28" width="334" height="34" fill="none"/>
        <text id="ITEM_5_BODY" data-bg-id="ITEM_5_TEXT_BG" font-size="18.5" fill="var(--primary-text)" x="22.0" y="20.0" style="font-size: 26px; font-family: Inter, Segoe UI, Kalam, Roboto, Helvetica, Arial, sans-serif; font-weight: 400;" data-final-font-size="26">
          <tspan x="22.0" dy="23.24px">Ray Lankester established</tspan>
          <tspan x="22.0" dy="29.90px">the new genus Okapia</tspan>
        </text>
        <rect id="ITEM_5_BODY_FRAME" x="22" y="20" width="352" height="72" fill="none"/>
      </g>
    </g>
  </g>
</svg>
