<?xml version='1.0' encoding='utf-8'?>
<svg xmlns="http://www.w3.org/2000/svg" width="1920" height="1080" viewBox="0 0 1920 1080" data-theme="dark">
  <style>
        @font-face {
            font-family: 'Inter';
            src: url('assets/fonts/Inter-Regular.ttf') format('truetype');
            font-weight: 400;
            font-style: normal;
            font-display: swap;
        }
        @font-face {
            font-family: 'Inter';
            src: url('assets/fonts/Inter-Bold.ttf') format('truetype');
            font-weight: 600;
            font-style: normal;
            font-display: swap;
        }
        @font-face {
            font-family: 'Inter';
            src: url('assets/fonts/Inter-Bold.ttf') format('truetype');
            font-weight: 800;
            font-style: normal;
            font-display: swap;
        }
        
:root {
    --background: #0f172a;
    --panel: #1e293b;
    --primary-text: #f1f5f9;
    --muted-text: #94a3b8;
    --inverse-text: #0f172a;
    --border: #334155;
    --shadow-color: #000000;
    --icon-pad-bg: #1e293b;
    --art-glow: #7dd3fc;
    --art-glow-opacity: 0.18;
    --art-sheen: #ffffff;
    --art-sheen-opacity: 0.18;
    --art-shadow: #000000;
    --art-shadow-opacity: 0.28;
    --art-muted-line: #64748b;
    --art-panel-tint: #1e293b;
    --font-family: 'Inter', 'Segoe UI', 'Kalam', Roboto, Helvetica, Arial, sans-serif;
    --radius-xl: 16px;
    --font-family-headline: 'Inter', 'Segoe UI', 'Kalam', Roboto, Helvetica, Arial, sans-serif;
    --font-family-body: 'Inter', 'Segoe UI', 'Kalam', Roboto, Helvetica, Arial, sans-serif;
    --font-heading: 'Inter', 'Segoe UI', 'Kalam', Roboto, Helvetica, Arial, sans-serif;
    --font-body: 'Inter', 'Segoe UI', 'Kalam', Roboto, Helvetica, Arial, sans-serif;
    --font-size-h1: 56px;
    --font-size-h2: 40px;
    --font-size-h3: 28px;
    --font-size-body: 24px;
    --font-size-caption: 18px;
    --secondary-text: var(--muted-text);
    --panel-border: var(--border);
    --font-weight-normal: 400;
    --font-weight-medium: 500;
    --font-weight-semibold: 600;
    --font-weight-bold: 700;
    --spacing-gutter-pct: 0.07;
    --spacing-top-pct: 0.15;
    --spacing-bottom-pct: 0.07;
    --spacing-title-y-pct: 0.055;
    --accent-1: #60a5fa;
    --accent-2: #4ade80;
    --accent-3: #f97316;
    --accent-4: #a78bfa;
    --accent-5: #38bdf8;
    --accent-6: #94a3b8;
}
:root[data-theme="dark"] {
    --background: #0f172a;
    --panel: #1e293b;
    --primary-text: #f1f5f9;
    --muted-text: #94a3b8;
    --inverse-text: #0f172a;
    --border: #334155;
    --shadow-color: #000000;
    --icon-pad-bg: #1e293b;
    --art-glow: #7dd3fc;
    --art-glow-opacity: 0.18;
    --art-sheen: #ffffff;
    --art-sheen-opacity: 0.18;
    --art-shadow: #000000;
    --art-shadow-opacity: 0.28;
    --art-muted-line: #64748b;
    --art-panel-tint: #1e293b;
    --accent-1: #60a5fa;
    --accent-2: #4ade80;
    --accent-3: #f97316;
    --accent-4: #a78bfa;
    --accent-5: #38bdf8;
    --accent-6: #94a3b8;
}
:root[data-theme="light"] {
    --background: #f8fafc;
    --panel: #ffffff;
    --primary-text: #0f172a;
    --muted-text: #64748b;
    --inverse-text: #ffffff;
    --border: #e2e8f0;
    --shadow-color: #000000;
    --icon-pad-bg: #1e293b;
    --art-glow: #0891b2;
    --art-glow-opacity: 0.10;
    --art-sheen: #ffffff;
    --art-sheen-opacity: 0.34;
    --art-shadow: #0f172a;
    --art-shadow-opacity: 0.14;
    --art-muted-line: #94a3b8;
    --art-panel-tint: #f1f5f9;
    --accent-1: #2563eb;
    --accent-2: #16a34a;
    --accent-3: #ea580c;
    --accent-4: #7c3aed;
    --accent-5: #0284c7;
    --accent-6: #475569;
}</style>
  <rect x="0" y="0" width="1.92E+3" height="1.08E+3" fill="#252a34" stroke="none" id="programmatic_background"/>
  <line id="HEADER_DECOR" x1="960.0" x2="1080.0" y1="125.0" y2="125.0" stroke="var(--accent-1)" stroke-width="6" stroke-linecap="round"/>
  <defs>
    <pattern id="svg7e4d6024-napkin-hatch" patternUnits="userSpaceOnUse" width="12" height="12">
      <path d="M -3 12 L 12 -3 M 0 15 L 15 0" fill="none" stroke="var(--primary-text)" stroke-width="1" stroke-opacity="0.05"/>
    </pattern>
    <filter id="svg7e4d6024-shadow" x="-30%" y="-30%" width="160%" height="160%">
      <feDropShadow dx="0" dy="3" stdDeviation="6" flood-color="#000000" flood-opacity="0.10"/>
      <feDropShadow dx="0" dy="8" stdDeviation="12" flood-color="#000000" flood-opacity="0.16"/>
    </filter>
    <marker id="svg7e4d6024-arrowhead" markerWidth="12" markerHeight="12" refX="10" refY="6" orient="auto">
      <path d="M 0 0 L 12 6 L 0 12 Z" fill="var(--muted-text)"/>
    </marker>
    <radialGradient id="svg7e4d6024-universal-edge-vignette" cx="50%" cy="50%" r="72%">
      <stop offset="0%" stop-color="var(--background)" stop-opacity="0"/>
      <stop offset="72%" stop-color="var(--background)" stop-opacity="0.12"/>
      <stop offset="100%" stop-color="var(--primary-text)" stop-opacity="0.08"/>
    </radialGradient>
    <linearGradient id="svg7e4d6024-universal-surface-sheen" x1="0%" y1="0%" x2="100%" y2="100%">
      <stop offset="0%" stop-color="var(--art-sheen)" stop-opacity="var(--art-sheen-opacity)"/>
      <stop offset="46%" stop-color="var(--art-sheen)" stop-opacity="0.035"/>
      <stop offset="100%" stop-color="var(--art-panel-tint)" stop-opacity="0.14"/>
    </linearGradient>
    <radialGradient id="svg7e4d6024-universal-icon-aura" cx="50%" cy="42%" r="64%">
      <stop offset="0%" stop-color="var(--art-glow)" stop-opacity="var(--art-glow-opacity)"/>
      <stop offset="100%" stop-color="var(--background)" stop-opacity="0"/>
    </radialGradient>
    <filter id="svg7e4d6024-text-glow" x="-20%" y="-20%" width="140%" height="140%">
      <feDropShadow dx="0" dy="0" stdDeviation="2" flood-color="#000000" flood-opacity="0.4"/>
    </filter>
  </defs>
  <rect width="100%" height="100%" fill="var(--background)" id="CANVAS_BG"/>
  <rect width="100%" height="100%" fill="url(#svg7e4d6024-napkin-hatch)"/>
  <rect id="UNIVERSAL_EDGE_VIGNETTE" width="100%" height="100%" fill="url(#svg7e4d6024-universal-edge-vignette)" opacity="0.62"/>
  <text id="TITLE" x="960.0" y="59" text-anchor="middle" font-size="58" font-weight="800" fill="#f1f5f9" style="font-size: 60px; font-family: Inter, Segoe UI, Kalam, Roboto, Helvetica, Arial, sans-serif; font-weight: 700; letter-spacing:-1.2px;" data-final-font-size="60">
    <tspan x="960.0" dy="68.00px">Coelacanth Validation Framework</tspan>
  </text>
  <rect id="TITLE_FRAME" x="134" y="56" width="1652" height="98" fill="none"/>
  <rect x="120" y="165" width="1680" height="820" rx="40" fill="var(--panel)" fill-opacity="0.22" stroke="var(--muted-text)" stroke-width="2.4" opacity="0.92"/>
  <path d="M 272.0 282.0 Q 319.5 282.0 367.0 418.0 Q 414.5 418.0 462.0 554.0 Q 509.5 554.0 557.0 690.0 Q 604.5 690.0 652.0 826.0" fill="none" stroke="var(--muted-text)" stroke-width="10" stroke-linecap="round" stroke-linejoin="round" opacity="0.36" marker-end="url(#svg7e4d6024-arrowhead)"/>
  <g id="DIAGRAM_MAIN" transform="translate(-60 -20) scale(1.08)">
    <g filter="url(#svg7e4d6024-shadow)">
      <rect id="ITEM_1_BG" x="190.0" y="210.0" width="980" height="144" rx="24" fill="var(--panel)" fill-opacity="0.97" stroke="var(--accent-1)" stroke-width="2.5"/>
      <rect x="190.0" y="210.0" width="980" height="144" rx="16" fill="url(#svg7e4d6024-universal-surface-sheen)" opacity="0.86"/>
      <rect x="190.0" y="210.0" width="980" height="18" rx="9" fill="var(--accent-1)" fill-opacity="0.55"/>
      <circle id="ITEM_1_PAD" cx="272.0" cy="282.0" r="40" fill="var(--icon-pad-bg)" opacity="0.95" fill-opacity="0.9" stroke-width="2" stroke="var(--primary-text)"/>
      <circle id="ITEM_1_PAD_INNER" cx="272.0" cy="282.0" r="31.20" fill="var(--accent-2)" fill-opacity="0.22"/>
      <circle cx="272.0" cy="282.0" r="32" fill="none" stroke="var(--accent-1)" stroke-width="3" stroke-dasharray="6 4"/>
      <g id="ITEM_1_ICON" transform="translate(242.0, 252.0)" data-icon-size="60" stroke-dasharray="6 4">
        <g transform="translate(-3.844067796610173,-3.844067796610173) scale(2.820338983050848)" vector-effect="non-scaling-stroke" stroke-width="2.43" stroke-linecap="round" stroke-linejoin="round" stroke-opacity="1.0">
          <path d="M22 7.7c0-.6-.4-1.2-.8-1.5l-6.3-3.9a1.72 1.72 0 0 0-1.7 0l-10.3 6c-.5.2-.9.8-.9 1.4v6.6c0 .5.4 1.2.8 1.5l6.3 3.9a1.72 1.72 0 0 0 1.7 0l10.3-6c.5-.3.9-1 .9-1.5Z" vector-effect="non-scaling-stroke" fill="none" stroke="#f1f5f9"/>
          <path d="M10 21.9V14L2.1 9.1" vector-effect="non-scaling-stroke" fill="none" stroke="#f1f5f9"/>
          <path d="m10 14 11.9-6.9" vector-effect="non-scaling-stroke" fill="none" stroke="#f1f5f9"/>
          <path d="M14 19.8v-8.1" vector-effect="non-scaling-stroke" fill="none" stroke="#f1f5f9"/>
          <path d="M18 17.5V9.4" vector-effect="non-scaling-stroke" fill="none" stroke="#f1f5f9"/>
        </g>
      </g>
      <rect x="345.0" y="238.0" width="690.0" height="24" rx="12" fill="var(--accent-1)" fill-opacity="0.08"/>
      <text x="1136.0" y="252.0" text-anchor="end" font-size="17" font-weight="800" fill="var(--accent-1)" opacity="0.72">01</text>
      <text id="ITEM_1_HEAD" x="358.0" y="228.0" text-anchor="start" font-weight="800" font-size="30" fill="var(--accent-2)" data-bg-id="ITEM_1_BG" fill-opacity="1.0" stroke="none" style="font-size: 30px; font-family: Inter, Segoe UI, Kalam, Roboto, Helvetica, Arial, sans-serif; font-weight: 700; letter-spacing:-0.4px;" data-final-font-size="30">
        <tspan x="358.0" dy="28.31px">Physical Recovery</tspan>
      </text>
      <rect id="ITEM_1_HEAD_FRAME" x="358.0" y="228.0" width="620.0" height="34" fill="none"/>
      <text id="ITEM_1_BODY" x="358.0" y="270.0" text-anchor="start" font-size="23" fill="var(--primary-text)" data-bg-id="ITEM_1_BG" style="font-size: 26px; font-family: Inter, Segoe UI, Kalam, Roboto, Helvetica, Arial, sans-serif; font-weight: 400;" data-final-font-size="26">
        <tspan x="358.0" dy="29.92px">Secure a specimen for independent biological examination</tspan>
      </text>
      <rect id="ITEM_1_BODY_FRAME" x="358.0" y="270.0" width="650.0" height="64.0" fill="none"/>
    </g>
    <g filter="url(#svg7e4d6024-shadow)">
      <rect id="ITEM_2_BG" x="285.0" y="346.0" width="980" height="144" rx="24" fill="var(--panel)" fill-opacity="0.97" stroke="var(--accent-2)" stroke-width="2.5"/>
      <rect x="285.0" y="346.0" width="980" height="144" rx="16" fill="url(#svg7e4d6024-universal-surface-sheen)" opacity="0.86"/>
      <rect x="285.0" y="346.0" width="980" height="18" rx="9" fill="var(--accent-2)" fill-opacity="0.55"/>
      <circle id="ITEM_2_PAD" cx="367.0" cy="418.0" r="40" fill="var(--icon-pad-bg)" opacity="0.95" fill-opacity="0.9" stroke-width="2" stroke="var(--primary-text)"/>
      <circle id="ITEM_2_PAD_INNER" cx="367.0" cy="418.0" r="31.20" fill="var(--accent-3)" fill-opacity="0.22"/>
      <circle cx="367.0" cy="418.0" r="32" fill="none" stroke="var(--accent-2)" stroke-width="3" stroke-dasharray="6 4"/>
      <g id="ITEM_2_ICON" transform="translate(337.0, 388.0)" data-icon-size="60" stroke-dasharray="6 4">
        <g transform="translate(-5.341592920353987,-5.617699115044255) scale(2.2088495575221243)">
          <path d="M27.4793 9.13549C26.7674 9.13549 26.1901 9.71275 26.1901 10.4247V13.3462C26.1901 13.5451 26.1003 13.7311 25.9464 13.8529C25.5199 14.1929 24.8913 13.8914 24.8913 13.3462V3.2892C24.8913 2.57725 24.3141 2 23.6021 2C22.8902 2 22.3129 2.57725 22.3129 3.2892V9.27019C22.3129 9.56202 21.973 9.72558 21.7453 9.54278L21.4535 9.30226C20.8987 8.85649 20.0873 8.94628 19.6415 9.5043C19.1958 10.0591 19.2856 10.8705 19.8436 11.3162L21.8832 12.955C22.1558 13.1731 22.3129 13.5002 22.3129 13.8497V18.657C22.3129 19.1893 22.0692 19.6928 21.6555 20.0263L19.106 22.066C18.5929 22.4765 18.2946 23.0986 18.2946 23.756V29.923H20.873V24.4199C20.873 24.1248 21.0077 23.849 21.2354 23.663L24.2339 21.2642C24.6508 20.9307 24.8913 20.4272 24.8913 19.8949V18.5479C24.8913 18.1984 25.0485 17.8713 25.3211 17.6532L28.2233 15.3313C28.5665 15.0556 28.7685 14.6386 28.7685 14.1993V10.4247C28.7685 9.71275 28.1913 9.13549 27.4793 9.13549ZM19.6351 13.449C18.936 13.449 18.3716 14.0134 18.3716 14.7125V17.0504C18.3716 17.323 18.2305 17.5795 17.9996 17.7239C17.4672 18.0606 16.7713 17.679 16.7713 17.0504V16.7233C16.7713 16.0242 16.2069 15.4597 15.5077 15.4597C14.8086 15.4597 14.2442 16.0242 14.2442 16.7233V29.7051H16.7713V23.4611C16.7713 22.2393 17.3966 21.1008 18.4293 20.4466L19.68 19.6512C20.4401 19.1702 20.8986 18.3332 20.8986 17.4352V14.7125C20.8986 14.0134 20.3342 13.449 19.6351 13.449ZM14.0261 10.0786V9.33455C14.0261 8.60015 14.6226 8.00687 15.357 8.00687C16.0914 8.00687 16.6879 8.60336 16.6879 9.33776V10.7745C16.6879 12.0444 16.0433 13.231 14.9753 13.9205L13.7631 14.703C13.2789 15.0141 12.987 15.5496 12.987 16.1269V30.0034V30.0131H10.3253V30.0034V23.2367C10.3253 22.9994 10.2162 22.7781 10.0302 22.6338L8.05793 21.1105C7.47747 20.6615 7.37164 19.8245 7.82061 19.2441C8.26959 18.6636 9.10661 18.5578 9.68707 19.0068L9.87307 19.1511C10.0559 19.2954 10.3253 19.1639 10.3253 18.9298V16.1205C10.3253 15.5464 10.0334 15.0077 9.54917 14.6966L7.88155 13.6191C7.09905 13.1124 6.62442 12.2401 6.62442 11.3068C6.62442 10.9284 6.31655 10.6205 5.93813 10.6205H4.11657C3.27314 10.6205 2.59326 9.93746 2.59326 9.09723V6.84274C2.59326 6.10834 3.18976 5.51185 3.92415 5.51185C4.65855 5.51185 5.25504 6.10834 5.25504 6.84274V7.27889C5.25504 7.65731 5.5597 7.96197 5.93813 7.96197C6.31655 7.96197 6.62121 7.65731 6.62121 7.27889V3.35677C6.62121 2.62237 7.2177 2.02588 7.9521 2.02588C8.68649 2.02588 9.28299 2.62237 9.28299 3.35677V10.0689C9.28299 10.8707 9.69027 11.6179 10.3701 12.0573L10.399 12.0765C11.1687 12.5736 12.1564 12.5736 12.9261 12.0765L12.9453 12.0637C13.6188 11.6275 14.0261 10.8803 14.0261 10.0786Z" fill="#FF6723"/>
          <path d="M6.97396 18.3714C6.97396 19.4076 6.13401 20.2475 5.09788 20.2475C4.06175 20.2475 3.2218 19.4076 3.2218 18.3714C3.2218 17.3353 4.06175 16.4954 5.09788 16.4954C6.13401 16.4954 6.97396 17.3353 6.97396 18.3714ZM29 20.7539C29 21.1681 28.6642 21.5039 28.25 21.5039C27.8358 21.5039 27.5 21.1681 27.5 20.7539C27.5 20.3397 27.8358 20.0039 28.25 20.0039C28.6642 20.0039 29 20.3397 29 20.7539ZM28 23.5C28 24.3284 27.3284 25 26.5 25C25.6716 25 25 24.3284 25 23.5C25 22.6716 25.6716 22 26.5 22C27.3284 22 28 22.6716 28 23.5ZM29.5 24C29.7761 24 30 23.7761 30 23.5C30 23.2239 29.7761 23 29.5 23C29.2239 23 29 23.2239 29 23.5C29 23.7761 29.2239 24 29.5 24ZM6.13057 23.0119C6.5521 23.0119 6.89382 22.6701 6.89382 22.2486C6.89382 21.8271 6.5521 21.4854 6.13057 21.4854C5.70903 21.4854 5.36731 21.8271 5.36731 22.2486C5.36731 22.6701 5.70903 23.0119 6.13057 23.0119ZM4.3475 23.2143C4.3475 23.8625 3.82199 24.388 3.17375 24.388C2.52551 24.388 2 23.8625 2 23.2143C2 22.566 2.52551 22.0405 3.17375 22.0405C3.82199 22.0405 4.3475 22.566 4.3475 23.2143Z" fill="#00A6ED"/>
          <path d="M5 29.272L6.35975 27.6525C7.23205 26.6134 8.52125 26.0105 9.881 26.0105H13.9203C15.0844 26.0105 16.2068 26.4531 17.0567 27.2484L17.0984 27.2901C17.5954 27.7551 18.2529 28.0148 18.9327 28.0148H20.3214C20.998 28.0148 21.6394 27.7038 22.0563 27.1714C22.454 26.6679 23.0569 26.3729 23.6983 26.3729C24.3236 26.3729 24.9137 26.6519 25.3114 27.1329L27.0784 29.2752C27.3221 29.5702 27.1105 30.0128 26.7289 30.0128H5.34636C4.96152 30.0128 4.75307 29.567 5 29.272Z" fill="#9B9B9B"/>
        </g>
      </g>
      <rect x="440.0" y="374.0" width="690.0" height="24" rx="12" fill="var(--accent-2)" fill-opacity="0.08"/>
      <text x="1231.0" y="388.0" text-anchor="end" font-size="17" font-weight="800" fill="var(--accent-2)" opacity="0.72">02</text>
      <text id="ITEM_2_HEAD" x="453.0" y="364.0" text-anchor="start" font-weight="800" font-size="30" fill="var(--accent-3)" data-bg-id="ITEM_2_BG" fill-opacity="1.0" stroke="none" style="font-size: 30px; font-family: Inter, Segoe UI, Kalam, Roboto, Helvetica, Arial, sans-serif; font-weight: 700; letter-spacing:-0.4px;" data-final-font-size="30">
        <tspan x="453.0" dy="28.31px">Habitat Analysis</tspan>
      </text>
      <rect id="ITEM_2_HEAD_FRAME" x="453.0" y="364.0" width="620.0" height="34" fill="none"/>
      <text id="ITEM_2_BODY" x="453.0" y="406.0" text-anchor="start" font-size="23" fill="var(--primary-text)" data-bg-id="ITEM_2_BG" style="font-size: 26px; font-family: Inter, Segoe UI, Kalam, Roboto, Helvetica, Arial, sans-serif; font-weight: 400;" data-final-font-size="26">
        <tspan x="453.0" dy="23.94px">Identify a credible environment capable</tspan>
        <tspan x="453.0" dy="29.90px">of supporting life</tspan>
      </text>
      <rect id="ITEM_2_BODY_FRAME" x="453.0" y="406.0" width="650.0" height="64.0" fill="none"/>
    </g>
    <g filter="url(#svg7e4d6024-shadow)">
      <rect id="ITEM_3_BG" x="380.0" y="482.0" width="980" height="144" rx="24" fill="var(--panel)" fill-opacity="0.97" stroke="var(--accent-3)" stroke-width="2.5"/>
      <rect x="380.0" y="482.0" width="980" height="144" rx="16" fill="url(#svg7e4d6024-universal-surface-sheen)" opacity="0.86"/>
      <rect x="380.0" y="482.0" width="980" height="18" rx="9" fill="var(--accent-3)" fill-opacity="0.55"/>
      <circle id="ITEM_3_PAD" cx="462.0" cy="554.0" r="40" fill="var(--icon-pad-bg)" opacity="0.95" fill-opacity="0.9" stroke-width="2" stroke="var(--primary-text)"/>
      <circle id="ITEM_3_PAD_INNER" cx="462.0" cy="554.0" r="31.20" fill="var(--accent-4)" fill-opacity="0.22"/>
      <circle cx="462.0" cy="554.0" r="32" fill="none" stroke="var(--accent-3)" stroke-width="3" stroke-dasharray="6 4"/>
      <g id="ITEM_3_ICON" transform="translate(432.0, 524.0)" data-icon-size="60" stroke-dasharray="6 4">
        <g transform="translate(-4.726956521739133,-5.5408695652173945) scale(0.1356521739130435)" vector-effect="non-scaling-stroke" fill="#f1f5f9" fill-opacity="1.0" stroke="none">
          <path fill="#f1f5f9" d="M121.4 33v30h78.1V33zm11 48c-16.4 16.58-42.95 46.2-42.95 71v39H231.5v-39c0-24.8-26.5-54.42-43-71zM89.45 209v16H231.5v-16zm0 34v16H231.5v-16zm0 34v16H231.5v-16zm0 34v170.2c43.05 12.7 98.95 12.7 142.05 0V311zm224.85 34l14.3 142H345l-6.9-118.5l18-1L363 487h45.3l14.3-142z" vector-effect="non-scaling-stroke" stroke="none"/>
        </g>
      </g>
      <rect x="535.0" y="510.0" width="690.0" height="24" rx="12" fill="var(--accent-3)" fill-opacity="0.08"/>
      <text x="1326.0" y="524.0" text-anchor="end" font-size="17" font-weight="800" fill="var(--accent-3)" opacity="0.72">03</text>
      <text id="ITEM_3_HEAD" x="548.0" y="500.0" text-anchor="start" font-weight="800" font-size="30" fill="var(--accent-4)" data-bg-id="ITEM_3_BG" fill-opacity="1.0" stroke="none" style="font-size: 30px; font-family: Inter, Segoe UI, Kalam, Roboto, Helvetica, Arial, sans-serif; font-weight: 700; letter-spacing:-0.4px;" data-final-font-size="30">
        <tspan x="548.0" dy="28.31px">Biological Viability</tspan>
      </text>
      <rect id="ITEM_3_HEAD_FRAME" x="548.0" y="500.0" width="620.0" height="34" fill="none"/>
      <text id="ITEM_3_BODY" x="548.0" y="542.0" text-anchor="start" font-size="23" fill="var(--primary-text)" data-bg-id="ITEM_3_BG" style="font-size: 26px; font-family: Inter, Segoe UI, Kalam, Roboto, Helvetica, Arial, sans-serif; font-weight: 400;" data-final-font-size="26">
        <tspan x="548.0" dy="29.92px">Confirm the species can survive and reproduce naturally</tspan>
      </text>
      <rect id="ITEM_3_BODY_FRAME" x="548.0" y="542.0" width="650.0" height="64.0" fill="none"/>
    </g>
    <g filter="url(#svg7e4d6024-shadow)">
      <rect id="ITEM_4_BG" x="475.0" y="618.0" width="980" height="144" rx="24" fill="var(--panel)" fill-opacity="0.97" stroke="var(--accent-4)" stroke-width="2.5"/>
      <rect x="475.0" y="618.0" width="980" height="144" rx="16" fill="url(#svg7e4d6024-universal-surface-sheen)" opacity="0.86"/>
      <rect x="475.0" y="618.0" width="980" height="18" rx="9" fill="var(--accent-4)" fill-opacity="0.55"/>
      <circle id="ITEM_4_PAD" cx="557.0" cy="690.0" r="40" fill="var(--icon-pad-bg)" opacity="0.95" fill-opacity="0.9" stroke-width="2" stroke="var(--primary-text)"/>
      <circle id="ITEM_4_PAD_INNER" cx="557.0" cy="690.0" r="31.20" fill="var(--accent-5)" fill-opacity="0.22"/>
      <circle cx="557.0" cy="690.0" r="32" fill="none" stroke="var(--accent-4)" stroke-width="3" stroke-dasharray="6 4"/>
      <g id="ITEM_4_ICON" transform="translate(527.0, 660.0)" data-icon-size="60" stroke-dasharray="6 4">
        <g transform="translate(-3.0049586776859543,-2.7471074380165357) scale(2.0628099173553722)">
          <path fill-rule="evenodd" clip-rule="evenodd" d="M26.7063 4.22157C26.5114 3.27005 25.771 2.21299 24.7022 1.57804C23.5708 0.905943 22.0628 0.699238 20.415 1.49908C18.6052 2.37751 17.956 3.79692 17.8471 5.08947C17.7498 6.24411 18.0841 7.27164 18.2036 7.63887L18.2199 7.68909C18.2745 7.85888 18.2873 7.99041 18.2753 8.08474C18.2658 8.15942 18.2392 8.23757 18.1445 8.33222C17.8006 8.6761 14.0908 12.3509 11.3882 15.028L11.3568 15.0592C10.0359 16.3676 8.96115 17.4322 8.64743 17.7434C8.44443 17.9447 8.33019 18.02 8.27733 18.0475C8.25294 18.0601 8.2501 18.0597 8.24622 18.0591L8.24341 18.0588C8.20075 18.0581 8.12628 18.0475 7.91248 17.9956L7.83071 17.9755C7.64521 17.9299 7.39677 17.8687 7.10536 17.8191C6.30916 17.6836 5.28709 17.6038 4.27404 17.9021C3.21907 18.2127 2.24693 18.9128 1.56999 20.1876C0.0486906 23.0523 1.88523 26.6804 5.3709 26.7877C5.37348 26.8283 5.37506 26.8754 5.37506 26.93C5.37506 27.8194 5.82243 29.0303 6.75838 29.8964C7.76138 30.8245 9.26282 31.3025 11.1895 30.7507L11.2166 30.7429L11.2432 30.7336C12.9352 30.144 13.7783 28.792 14.049 27.4397C14.2923 26.224 14.0979 24.9178 13.6038 23.9696C13.6931 23.8614 13.814 23.7257 13.9832 23.539C14.6795 22.7707 20.7438 16.8704 23.6256 14.0778C23.7641 13.9436 23.8705 13.895 23.9682 13.8767C24.0743 13.8568 24.2721 13.8543 24.6185 13.9838C25.8892 14.4591 28.4186 14.7074 30.2309 12.2131C31.2285 10.8401 31.1159 9.14704 30.5056 7.84917C29.9028 6.56725 28.6964 5.41871 27.1652 5.24858C27.0066 5.23096 26.9355 5.20197 26.9132 5.19097L26.9104 5.18537C26.89 5.14403 26.8618 5.06183 26.8265 4.88205C26.811 4.80322 26.7968 4.72074 26.7797 4.62133L26.774 4.58839C26.7552 4.47886 26.7332 4.35295 26.7063 4.22157ZM13.4773 23.7439L13.4789 23.747C13.4778 23.7449 13.4773 23.7439 13.4773 23.7439Z" fill="#9B9B9B"/>
          <path d="M9.35155 18.4534C10.3047 17.508 18.3359 9.55492 18.8515 9.0393C19.3672 8.52367 19.3375 7.89844 19.1719 7.38305C18.9609 6.7268 17.9472 3.80839 20.8515 2.39868C23.5234 1.1018 25.4609 3.12525 25.7265 4.42219C25.9144 5.33922 25.8594 6.10962 27.0547 6.24243C29.2344 6.48462 30.875 9.62524 29.4219 11.6252C27.9687 13.6252 25.9922 13.4299 24.9687 13.0472C24.0365 12.6985 23.422 12.8825 22.9297 13.3596C20.0703 16.1305 13.9672 22.0674 13.2422 22.8674C12.5172 23.6674 12.378 23.8584 12.6328 24.2815C13.5078 25.7346 13.4922 28.8908 10.914 29.7893C7.6953 30.7112 6.37498 28.1487 6.37498 26.9299C6.37498 25.883 5.94588 25.7994 5.4453 25.7893C2.71906 25.7342 1.24998 22.9222 2.45311 20.6565C3.55149 18.5881 5.46874 18.5549 6.93749 18.8049C8.11248 19.0049 8.39842 19.3987 9.35155 18.4534Z" fill="white"/>
          <path d="M25.8279 4.9834C25.9374 5.58255 26.0859 6.05152 26.8304 6.20713C26.7715 6.73166 26.6267 7.2628 26.3387 7.69795C25.789 8.52875 25.0792 8.92148 24.504 9.10174C24.2188 9.19111 23.9676 9.22823 23.7848 9.24296C23.6932 9.25034 23.618 9.25217 23.5632 9.25198C23.5358 9.25188 23.5135 9.25128 23.4967 9.25061L23.4757 9.2496L23.4684 9.24915L23.4656 9.24896L23.4644 9.24888C23.4644 9.24888 23.3358 9.25198 23.4633 9.2488C23.1879 9.2286 22.981 8.98896 23.0012 8.71355C23.0214 8.43935 23.259 8.23307 23.5329 8.25123L23.5366 8.25141C23.5419 8.25161 23.552 8.25193 23.5667 8.25198C23.5962 8.25208 23.6433 8.25112 23.7045 8.24619C23.8274 8.23629 24.0034 8.21065 24.2049 8.1475C24.6031 8.02272 25.1042 7.75139 25.5048 7.14609C25.7723 6.74184 25.8805 6.11191 25.8614 5.44808C25.8568 5.28679 25.8449 5.13071 25.8279 4.9834Z" fill="#D3D3D3"/>
          <path d="M6.66817 28.1014C6.46898 27.6764 6.37488 27.2552 6.37488 26.9299C6.37488 25.883 5.94578 25.7994 5.44519 25.7892L5.44141 25.7892C5.49811 25.3801 5.61475 24.9778 5.82057 24.6289C6.32667 23.7708 7.01522 23.3418 7.5803 23.1321C7.86047 23.0281 8.10945 22.978 8.29117 22.9539C8.38229 22.9418 8.45735 22.9361 8.51202 22.9334C8.53939 22.9321 8.56174 22.9316 8.57856 22.9314L8.59959 22.9313L8.60688 22.9313L8.60971 22.9314L8.61091 22.9314C8.61091 22.9314 8.7616 22.9334 8.61198 22.9314C8.88805 22.9374 9.10704 23.166 9.1011 23.4421C9.09518 23.717 8.86851 23.9352 8.59405 23.9313L8.59031 23.9313C8.58509 23.9313 8.5749 23.9316 8.56022 23.9323C8.53081 23.9337 8.48378 23.9371 8.42294 23.9452C8.30074 23.9614 8.12625 23.9961 7.92828 24.0696C7.53709 24.2148 7.05065 24.5117 6.68191 25.1369C6.43566 25.5544 6.3602 26.1891 6.41355 26.851C6.45346 27.3463 6.55955 27.7886 6.66535 28.0777L6.65613 28.0002C8.18738 29.1565 9.77511 29.3517 11.2655 28.219C12.6667 27.1541 11.7785 25.067 11.5633 24.5613C11.5496 24.5291 11.5386 24.5033 11.5311 24.4846C11.2714 23.8354 11.2749 23.2908 11.6249 22.9377C13.2688 21.2794 15.6393 18.8998 17.7428 16.7882C20.1977 14.3239 22.2893 12.2243 22.4374 12.0627C22.7811 11.6877 23.1561 11.5315 24.0311 11.469C24.3 11.4498 24.6397 11.5637 25.0267 11.6936C25.8991 11.9862 27.0117 12.3594 28.0936 11.469C29.5936 10.2346 29.4686 8.10962 28.6718 7.06274H28.7282C29.9183 8.18269 30.4606 10.1954 29.4218 11.6252C27.9686 13.6252 25.9921 13.4299 24.9686 13.0472C24.0364 12.6985 23.4219 12.8825 22.9296 13.3596C20.0702 16.1305 13.9671 22.0674 13.2421 22.8674C12.5171 23.6674 12.3779 23.8584 12.6327 24.2815C13.5077 25.7346 13.4921 28.8908 10.9139 29.7893C8.55449 30.4651 7.21513 29.2685 6.66817 28.1014Z" fill="#D3D3D3"/>
        </g>
      </g>
      <rect x="630.0" y="646.0" width="690.0" height="24" rx="12" fill="var(--accent-4)" fill-opacity="0.08"/>
      <text x="1421.0" y="660.0" text-anchor="end" font-size="17" font-weight="800" fill="var(--accent-4)" opacity="0.72">04</text>
      <text id="ITEM_4_HEAD" x="643.0" y="636.0" text-anchor="start" font-weight="800" font-size="30" fill="var(--accent-5)" data-bg-id="ITEM_4_BG" fill-opacity="1.0" stroke="none" style="font-size: 30px; font-family: Inter, Segoe UI, Kalam, Roboto, Helvetica, Arial, sans-serif; font-weight: 700; letter-spacing:-0.4px;" data-final-font-size="30">
        <tspan x="643.0" dy="28.31px">Taxonomic Fit</tspan>
      </text>
      <rect id="ITEM_4_HEAD_FRAME" x="643.0" y="636.0" width="620.0" height="34" fill="none"/>
      <text id="ITEM_4_BODY" x="643.0" y="678.0" text-anchor="start" font-size="23" fill="var(--primary-text)" data-bg-id="ITEM_4_BG" style="font-size: 26px; font-family: Inter, Segoe UI, Kalam, Roboto, Helvetica, Arial, sans-serif; font-weight: 400;" data-final-font-size="26">
        <tspan x="643.0" dy="23.94px">Ensure anatomy matches known evolutionary</tspan>
        <tspan x="643.0" dy="29.90px">biological patterns</tspan>
      </text>
      <rect id="ITEM_4_BODY_FRAME" x="643.0" y="678.0" width="650.0" height="64.0" fill="none"/>
    </g>
    <g filter="url(#svg7e4d6024-shadow)">
      <rect id="ITEM_5_BG" x="570.0" y="754.0" width="980" height="144" rx="24" fill="var(--panel)" fill-opacity="0.97" stroke="var(--accent-5)" stroke-width="2.5"/>
      <rect x="570.0" y="754.0" width="980" height="144" rx="16" fill="url(#svg7e4d6024-universal-surface-sheen)" opacity="0.86"/>
      <rect x="570.0" y="754.0" width="980" height="18" rx="9" fill="var(--accent-5)" fill-opacity="0.55"/>
      <circle id="ITEM_5_PAD" cx="652.0" cy="826.0" r="40" fill="var(--icon-pad-bg)" opacity="0.95" fill-opacity="0.9" stroke-width="2" stroke="var(--primary-text)"/>
      <circle id="ITEM_5_PAD_INNER" cx="652.0" cy="826.0" r="31.20" fill="var(--accent-6)" fill-opacity="0.22"/>
      <circle cx="652.0" cy="826.0" r="32" fill="none" stroke="var(--accent-5)" stroke-width="3" stroke-dasharray="6 4"/>
      <g id="ITEM_5_ICON" transform="translate(622.0, 796.0)" data-icon-size="60" stroke-dasharray="6 4">
        <g transform="translate(-6.977777777777781,-11.600000000000007) scale(3.081481481481482)" vector-effect="non-scaling-stroke" stroke-width="2.43" stroke-linecap="round" stroke-linejoin="round" stroke-opacity="1.0">
          <path d="M15 15m-3 0a3 3 0 1 0 6 0a3 3 0 1 0 -6 0" vector-effect="non-scaling-stroke" fill="none" stroke="#f1f5f9"/>
          <path d="M13 17.5v4.5l2 -1.5l2 1.5v-4.5" vector-effect="non-scaling-stroke" fill="none" stroke="#f1f5f9"/>
          <path d="M10 19h-5a2 2 0 0 1 -2 -2v-10c0 -1.1 .9 -2 2 -2h14a2 2 0 0 1 2 2v10a2 2 0 0 1 -1 1.73" vector-effect="non-scaling-stroke" fill="none" stroke="#f1f5f9"/>
          <path d="M6 9l12 0" vector-effect="non-scaling-stroke" fill="none" stroke="#f1f5f9"/>
          <path d="M6 12l3 0" vector-effect="non-scaling-stroke" fill="none" stroke="#f1f5f9"/>
          <path d="M6 15l2 0" vector-effect="non-scaling-stroke" fill="none" stroke="#f1f5f9"/>
        </g>
      </g>
      <rect x="725.0" y="782.0" width="690.0" height="24" rx="12" fill="var(--accent-5)" fill-opacity="0.08"/>
      <text x="1516.0" y="796.0" text-anchor="end" font-size="17" font-weight="800" fill="var(--accent-5)" opacity="0.72">05</text>
      <text id="ITEM_5_HEAD" x="738.0" y="772.0" text-anchor="start" font-weight="800" font-size="30" fill="var(--accent-6)" data-bg-id="ITEM_5_BG" fill-opacity="1.0" stroke="none" style="font-size: 30px; font-family: Inter, Segoe UI, Kalam, Roboto, Helvetica, Arial, sans-serif; font-weight: 700; letter-spacing:-0.4px;" data-final-font-size="30">
        <tspan x="738.0" dy="28.31px">Independent Confirmation</tspan>
      </text>
      <rect id="ITEM_5_HEAD_FRAME" x="738.0" y="772.0" width="620.0" height="34" fill="none"/>
      <text id="ITEM_5_BODY" x="738.0" y="814.0" text-anchor="start" font-size="23" fill="var(--primary-text)" data-bg-id="ITEM_5_BG" style="font-size: 26px; font-family: Inter, Segoe UI, Kalam, Roboto, Helvetica, Arial, sans-serif; font-weight: 400;" data-final-font-size="26">
        <tspan x="738.0" dy="29.92px">Verify findings through multiple separate research teams</tspan>
      </text>
      <rect id="ITEM_5_BODY_FRAME" x="738.0" y="814.0" width="650.0" height="64.0" fill="none"/>
    </g>
  </g>
</svg>
